<?xml version="1.0" encoding="utf-8" standalone="no"?>
<!DOCTYPE svg PUBLIC "-//W3C//DTD SVG 1.1//EN"
  "http://www.w3.org/Graphics/SVG/1.1/DTD/svg11.dtd">
<svg xmlns:xlink="http://www.w3.org/1999/xlink" width="864pt" height="576pt" viewBox="0 0 864 576" xmlns="http://www.w3.org/2000/svg" version="1.1">
 <metadata>
  <rdf:RDF xmlns:dc="http://purl.org/dc/elements/1.1/" xmlns:cc="http://creativecommons.org/ns#" xmlns:rdf="http://www.w3.org/1999/02/22-rdf-syntax-ns#">
   <cc:Work>
    <dc:type rdf:resource="http://purl.org/dc/dcmitype/StillImage"/>
    <dc:date>2024-12-17T15:17:10.519449</dc:date>
    <dc:format>image/svg+xml</dc:format>
    <dc:creator>
     <cc:Agent>
      <dc:title>Matplotlib v3.8.4, https://matplotlib.org/</dc:title>
     </cc:Agent>
    </dc:creator>
   </cc:Work>
  </rdf:RDF>
 </metadata>
 <defs>
  <style type="text/css">*{stroke-linejoin: round; stroke-linecap: butt}</style>
 </defs>
 <g id="figure_1">
  <g id="patch_1">
   <path d="M 0 576 
L 864 576 
L 864 0 
L 0 0 
z
" style="fill: #ffffff"/>
  </g>
  <g id="axes_1">
   <g id="patch_2">
    <path d="M 155.875938 464.180313 
L 848.88 464.180313 
L 848.88 28.417266 
L 155.875938 28.417266 
z
" style="fill: #ffffff"/>
   </g>
   <g id="matplotlib.axis_1">
    <g id="xtick_1">
     <g id="line2d_1">
      <path d="M 187.376122 464.180313 
L 187.376122 28.417266 
" clip-path="url(#p92caa1148e)" style="fill: none; stroke: #b0b0b0; stroke-opacity: 0.3; stroke-width: 2; stroke-linecap: square"/>
     </g>
     <g id="line2d_2">
      <defs>
       <path id="m6adddbbe4e" d="M 0 0 
L 0 5 
" style="stroke: #000000; stroke-width: 1.5"/>
      </defs>
      <g>
       <use xlink:href="#m6adddbbe4e" x="187.376122" y="464.180313" style="stroke: #000000; stroke-width: 1.5"/>
      </g>
     </g>
     <g id="text_1">
      <!-- 1 -->
      <g transform="translate(176.241747 499.274844) scale(0.35 -0.35)">
       <defs>
        <path id="DejaVuSans-31" d="M 794 531 
L 1825 531 
L 1825 4091 
L 703 3866 
L 703 4441 
L 1819 4666 
L 2450 4666 
L 2450 531 
L 3481 531 
L 3481 0 
L 794 0 
L 794 531 
z
" transform="scale(0.015625)"/>
       </defs>
       <use xlink:href="#DejaVuSans-31"/>
      </g>
     </g>
    </g>
    <g id="xtick_2">
     <g id="line2d_3">
      <path d="M 277.37665 464.180313 
L 277.37665 28.417266 
" clip-path="url(#p92caa1148e)" style="fill: none; stroke: #b0b0b0; stroke-opacity: 0.3; stroke-width: 2; stroke-linecap: square"/>
     </g>
     <g id="line2d_4">
      <g>
       <use xlink:href="#m6adddbbe4e" x="277.37665" y="464.180313" style="stroke: #000000; stroke-width: 1.5"/>
      </g>
     </g>
     <g id="text_2">
      <!-- 2 -->
      <g transform="translate(266.242275 499.274844) scale(0.35 -0.35)">
       <defs>
        <path id="DejaVuSans-32" d="M 1228 531 
L 3431 531 
L 3431 0 
L 469 0 
L 469 531 
Q 828 903 1448 1529 
Q 2069 2156 2228 2338 
Q 2531 2678 2651 2914 
Q 2772 3150 2772 3378 
Q 2772 3750 2511 3984 
Q 2250 4219 1831 4219 
Q 1534 4219 1204 4116 
Q 875 4013 500 3803 
L 500 4441 
Q 881 4594 1212 4672 
Q 1544 4750 1819 4750 
Q 2544 4750 2975 4387 
Q 3406 4025 3406 3419 
Q 3406 3131 3298 2873 
Q 3191 2616 2906 2266 
Q 2828 2175 2409 1742 
Q 1991 1309 1228 531 
z
" transform="scale(0.015625)"/>
       </defs>
       <use xlink:href="#DejaVuSans-32"/>
      </g>
     </g>
    </g>
    <g id="xtick_3">
     <g id="line2d_5">
      <path d="M 367.377177 464.180313 
L 367.377177 28.417266 
" clip-path="url(#p92caa1148e)" style="fill: none; stroke: #b0b0b0; stroke-opacity: 0.3; stroke-width: 2; stroke-linecap: square"/>
     </g>
     <g id="line2d_6">
      <g>
       <use xlink:href="#m6adddbbe4e" x="367.377177" y="464.180313" style="stroke: #000000; stroke-width: 1.5"/>
      </g>
     </g>
     <g id="text_3">
      <!-- 3 -->
      <g transform="translate(356.242802 499.274844) scale(0.35 -0.35)">
       <defs>
        <path id="DejaVuSans-33" d="M 2597 2516 
Q 3050 2419 3304 2112 
Q 3559 1806 3559 1356 
Q 3559 666 3084 287 
Q 2609 -91 1734 -91 
Q 1441 -91 1130 -33 
Q 819 25 488 141 
L 488 750 
Q 750 597 1062 519 
Q 1375 441 1716 441 
Q 2309 441 2620 675 
Q 2931 909 2931 1356 
Q 2931 1769 2642 2001 
Q 2353 2234 1838 2234 
L 1294 2234 
L 1294 2753 
L 1863 2753 
Q 2328 2753 2575 2939 
Q 2822 3125 2822 3475 
Q 2822 3834 2567 4026 
Q 2313 4219 1838 4219 
Q 1578 4219 1281 4162 
Q 984 4106 628 3988 
L 628 4550 
Q 988 4650 1302 4700 
Q 1616 4750 1894 4750 
Q 2613 4750 3031 4423 
Q 3450 4097 3450 3541 
Q 3450 3153 3228 2886 
Q 3006 2619 2597 2516 
z
" transform="scale(0.015625)"/>
       </defs>
       <use xlink:href="#DejaVuSans-33"/>
      </g>
     </g>
    </g>
    <g id="xtick_4">
     <g id="line2d_7">
      <path d="M 457.377705 464.180313 
L 457.377705 28.417266 
" clip-path="url(#p92caa1148e)" style="fill: none; stroke: #b0b0b0; stroke-opacity: 0.3; stroke-width: 2; stroke-linecap: square"/>
     </g>
     <g id="line2d_8">
      <g>
       <use xlink:href="#m6adddbbe4e" x="457.377705" y="464.180313" style="stroke: #000000; stroke-width: 1.5"/>
      </g>
     </g>
     <g id="text_4">
      <!-- 4 -->
      <g transform="translate(446.24333 499.274844) scale(0.35 -0.35)">
       <defs>
        <path id="DejaVuSans-34" d="M 2419 4116 
L 825 1625 
L 2419 1625 
L 2419 4116 
z
M 2253 4666 
L 3047 4666 
L 3047 1625 
L 3713 1625 
L 3713 1100 
L 3047 1100 
L 3047 0 
L 2419 0 
L 2419 1100 
L 313 1100 
L 313 1709 
L 2253 4666 
z
" transform="scale(0.015625)"/>
       </defs>
       <use xlink:href="#DejaVuSans-34"/>
      </g>
     </g>
    </g>
    <g id="xtick_5">
     <g id="line2d_9">
      <path d="M 547.378233 464.180313 
L 547.378233 28.417266 
" clip-path="url(#p92caa1148e)" style="fill: none; stroke: #b0b0b0; stroke-opacity: 0.3; stroke-width: 2; stroke-linecap: square"/>
     </g>
     <g id="line2d_10">
      <g>
       <use xlink:href="#m6adddbbe4e" x="547.378233" y="464.180313" style="stroke: #000000; stroke-width: 1.5"/>
      </g>
     </g>
     <g id="text_5">
      <!-- 5 -->
      <g transform="translate(536.243858 499.274844) scale(0.35 -0.35)">
       <defs>
        <path id="DejaVuSans-35" d="M 691 4666 
L 3169 4666 
L 3169 4134 
L 1269 4134 
L 1269 2991 
Q 1406 3038 1543 3061 
Q 1681 3084 1819 3084 
Q 2600 3084 3056 2656 
Q 3513 2228 3513 1497 
Q 3513 744 3044 326 
Q 2575 -91 1722 -91 
Q 1428 -91 1123 -41 
Q 819 9 494 109 
L 494 744 
Q 775 591 1075 516 
Q 1375 441 1709 441 
Q 2250 441 2565 725 
Q 2881 1009 2881 1497 
Q 2881 1984 2565 2268 
Q 2250 2553 1709 2553 
Q 1456 2553 1204 2497 
Q 953 2441 691 2322 
L 691 4666 
z
" transform="scale(0.015625)"/>
       </defs>
       <use xlink:href="#DejaVuSans-35"/>
      </g>
     </g>
    </g>
    <g id="xtick_6">
     <g id="line2d_11">
      <path d="M 637.37876 464.180313 
L 637.37876 28.417266 
" clip-path="url(#p92caa1148e)" style="fill: none; stroke: #b0b0b0; stroke-opacity: 0.3; stroke-width: 2; stroke-linecap: square"/>
     </g>
     <g id="line2d_12">
      <g>
       <use xlink:href="#m6adddbbe4e" x="637.37876" y="464.180313" style="stroke: #000000; stroke-width: 1.5"/>
      </g>
     </g>
     <g id="text_6">
      <!-- 6 -->
      <g transform="translate(626.244385 499.274844) scale(0.35 -0.35)">
       <defs>
        <path id="DejaVuSans-36" d="M 2113 2584 
Q 1688 2584 1439 2293 
Q 1191 2003 1191 1497 
Q 1191 994 1439 701 
Q 1688 409 2113 409 
Q 2538 409 2786 701 
Q 3034 994 3034 1497 
Q 3034 2003 2786 2293 
Q 2538 2584 2113 2584 
z
M 3366 4563 
L 3366 3988 
Q 3128 4100 2886 4159 
Q 2644 4219 2406 4219 
Q 1781 4219 1451 3797 
Q 1122 3375 1075 2522 
Q 1259 2794 1537 2939 
Q 1816 3084 2150 3084 
Q 2853 3084 3261 2657 
Q 3669 2231 3669 1497 
Q 3669 778 3244 343 
Q 2819 -91 2113 -91 
Q 1303 -91 875 529 
Q 447 1150 447 2328 
Q 447 3434 972 4092 
Q 1497 4750 2381 4750 
Q 2619 4750 2861 4703 
Q 3103 4656 3366 4563 
z
" transform="scale(0.015625)"/>
       </defs>
       <use xlink:href="#DejaVuSans-36"/>
      </g>
     </g>
    </g>
    <g id="xtick_7">
     <g id="line2d_13">
      <path d="M 727.379288 464.180313 
L 727.379288 28.417266 
" clip-path="url(#p92caa1148e)" style="fill: none; stroke: #b0b0b0; stroke-opacity: 0.3; stroke-width: 2; stroke-linecap: square"/>
     </g>
     <g id="line2d_14">
      <g>
       <use xlink:href="#m6adddbbe4e" x="727.379288" y="464.180313" style="stroke: #000000; stroke-width: 1.5"/>
      </g>
     </g>
     <g id="text_7">
      <!-- 7 -->
      <g transform="translate(716.244913 499.274844) scale(0.35 -0.35)">
       <defs>
        <path id="DejaVuSans-37" d="M 525 4666 
L 3525 4666 
L 3525 4397 
L 1831 0 
L 1172 0 
L 2766 4134 
L 525 4134 
L 525 4666 
z
" transform="scale(0.015625)"/>
       </defs>
       <use xlink:href="#DejaVuSans-37"/>
      </g>
     </g>
    </g>
    <g id="xtick_8">
     <g id="line2d_15">
      <path d="M 817.379815 464.180313 
L 817.379815 28.417266 
" clip-path="url(#p92caa1148e)" style="fill: none; stroke: #b0b0b0; stroke-opacity: 0.3; stroke-width: 2; stroke-linecap: square"/>
     </g>
     <g id="line2d_16">
      <g>
       <use xlink:href="#m6adddbbe4e" x="817.379815" y="464.180313" style="stroke: #000000; stroke-width: 1.5"/>
      </g>
     </g>
     <g id="text_8">
      <!-- 8 -->
      <g transform="translate(806.24544 499.274844) scale(0.35 -0.35)">
       <defs>
        <path id="DejaVuSans-38" d="M 2034 2216 
Q 1584 2216 1326 1975 
Q 1069 1734 1069 1313 
Q 1069 891 1326 650 
Q 1584 409 2034 409 
Q 2484 409 2743 651 
Q 3003 894 3003 1313 
Q 3003 1734 2745 1975 
Q 2488 2216 2034 2216 
z
M 1403 2484 
Q 997 2584 770 2862 
Q 544 3141 544 3541 
Q 544 4100 942 4425 
Q 1341 4750 2034 4750 
Q 2731 4750 3128 4425 
Q 3525 4100 3525 3541 
Q 3525 3141 3298 2862 
Q 3072 2584 2669 2484 
Q 3125 2378 3379 2068 
Q 3634 1759 3634 1313 
Q 3634 634 3220 271 
Q 2806 -91 2034 -91 
Q 1263 -91 848 271 
Q 434 634 434 1313 
Q 434 1759 690 2068 
Q 947 2378 1403 2484 
z
M 1172 3481 
Q 1172 3119 1398 2916 
Q 1625 2713 2034 2713 
Q 2441 2713 2670 2916 
Q 2900 3119 2900 3481 
Q 2900 3844 2670 4047 
Q 2441 4250 2034 4250 
Q 1625 4250 1398 4047 
Q 1172 3844 1172 3481 
z
" transform="scale(0.015625)"/>
       </defs>
       <use xlink:href="#DejaVuSans-38"/>
      </g>
     </g>
    </g>
    <g id="text_9">
     <!-- Train k == test k -->
     <g transform="translate(257.388906 550.065625) scale(0.52 -0.52)">
      <defs>
       <path id="DejaVuSans-Bold-54" d="M 31 4666 
L 4331 4666 
L 4331 3756 
L 2784 3756 
L 2784 0 
L 1581 0 
L 1581 3756 
L 31 3756 
L 31 4666 
z
" transform="scale(0.015625)"/>
       <path id="DejaVuSans-Bold-72" d="M 3138 2547 
Q 2991 2616 2845 2648 
Q 2700 2681 2553 2681 
Q 2122 2681 1889 2404 
Q 1656 2128 1656 1613 
L 1656 0 
L 538 0 
L 538 3500 
L 1656 3500 
L 1656 2925 
Q 1872 3269 2151 3426 
Q 2431 3584 2822 3584 
Q 2878 3584 2943 3579 
Q 3009 3575 3134 3559 
L 3138 2547 
z
" transform="scale(0.015625)"/>
       <path id="DejaVuSans-Bold-61" d="M 2106 1575 
Q 1756 1575 1579 1456 
Q 1403 1338 1403 1106 
Q 1403 894 1545 773 
Q 1688 653 1941 653 
Q 2256 653 2472 879 
Q 2688 1106 2688 1447 
L 2688 1575 
L 2106 1575 
z
M 3816 1997 
L 3816 0 
L 2688 0 
L 2688 519 
Q 2463 200 2181 54 
Q 1900 -91 1497 -91 
Q 953 -91 614 226 
Q 275 544 275 1050 
Q 275 1666 698 1953 
Q 1122 2241 2028 2241 
L 2688 2241 
L 2688 2328 
Q 2688 2594 2478 2717 
Q 2269 2841 1825 2841 
Q 1466 2841 1156 2769 
Q 847 2697 581 2553 
L 581 3406 
Q 941 3494 1303 3539 
Q 1666 3584 2028 3584 
Q 2975 3584 3395 3211 
Q 3816 2838 3816 1997 
z
" transform="scale(0.015625)"/>
       <path id="DejaVuSans-Bold-69" d="M 538 3500 
L 1656 3500 
L 1656 0 
L 538 0 
L 538 3500 
z
M 538 4863 
L 1656 4863 
L 1656 3950 
L 538 3950 
L 538 4863 
z
" transform="scale(0.015625)"/>
       <path id="DejaVuSans-Bold-6e" d="M 4056 2131 
L 4056 0 
L 2931 0 
L 2931 347 
L 2931 1631 
Q 2931 2084 2911 2256 
Q 2891 2428 2841 2509 
Q 2775 2619 2662 2680 
Q 2550 2741 2406 2741 
Q 2056 2741 1856 2470 
Q 1656 2200 1656 1722 
L 1656 0 
L 538 0 
L 538 3500 
L 1656 3500 
L 1656 2988 
Q 1909 3294 2193 3439 
Q 2478 3584 2822 3584 
Q 3428 3584 3742 3212 
Q 4056 2841 4056 2131 
z
" transform="scale(0.015625)"/>
       <path id="DejaVuSans-Bold-20" transform="scale(0.015625)"/>
       <path id="DejaVuSans-Bold-6b" d="M 538 4863 
L 1656 4863 
L 1656 2216 
L 2944 3500 
L 4244 3500 
L 2534 1894 
L 4378 0 
L 3022 0 
L 1656 1459 
L 1656 0 
L 538 0 
L 538 4863 
z
" transform="scale(0.015625)"/>
       <path id="DejaVuSans-Bold-3d" d="M 678 3084 
L 4684 3084 
L 4684 2350 
L 678 2350 
L 678 3084 
z
M 678 1663 
L 4684 1663 
L 4684 922 
L 678 922 
L 678 1663 
z
" transform="scale(0.015625)"/>
       <path id="DejaVuSans-Bold-74" d="M 1759 4494 
L 1759 3500 
L 2913 3500 
L 2913 2700 
L 1759 2700 
L 1759 1216 
Q 1759 972 1856 886 
Q 1953 800 2241 800 
L 2816 800 
L 2816 0 
L 1856 0 
Q 1194 0 917 276 
Q 641 553 641 1216 
L 641 2700 
L 84 2700 
L 84 3500 
L 641 3500 
L 641 4494 
L 1759 4494 
z
" transform="scale(0.015625)"/>
       <path id="DejaVuSans-Bold-65" d="M 4031 1759 
L 4031 1441 
L 1416 1441 
Q 1456 1047 1700 850 
Q 1944 653 2381 653 
Q 2734 653 3104 758 
Q 3475 863 3866 1075 
L 3866 213 
Q 3469 63 3072 -14 
Q 2675 -91 2278 -91 
Q 1328 -91 801 392 
Q 275 875 275 1747 
Q 275 2603 792 3093 
Q 1309 3584 2216 3584 
Q 3041 3584 3536 3087 
Q 4031 2591 4031 1759 
z
M 2881 2131 
Q 2881 2450 2695 2645 
Q 2509 2841 2209 2841 
Q 1884 2841 1681 2658 
Q 1478 2475 1428 2131 
L 2881 2131 
z
" transform="scale(0.015625)"/>
       <path id="DejaVuSans-Bold-73" d="M 3272 3391 
L 3272 2541 
Q 2913 2691 2578 2766 
Q 2244 2841 1947 2841 
Q 1628 2841 1473 2761 
Q 1319 2681 1319 2516 
Q 1319 2381 1436 2309 
Q 1553 2238 1856 2203 
L 2053 2175 
Q 2913 2066 3209 1816 
Q 3506 1566 3506 1031 
Q 3506 472 3093 190 
Q 2681 -91 1863 -91 
Q 1516 -91 1145 -36 
Q 775 19 384 128 
L 384 978 
Q 719 816 1070 734 
Q 1422 653 1784 653 
Q 2113 653 2278 743 
Q 2444 834 2444 1013 
Q 2444 1163 2330 1236 
Q 2216 1309 1875 1350 
L 1678 1375 
Q 931 1469 631 1722 
Q 331 1975 331 2491 
Q 331 3047 712 3315 
Q 1094 3584 1881 3584 
Q 2191 3584 2531 3537 
Q 2872 3491 3272 3391 
z
" transform="scale(0.015625)"/>
      </defs>
      <use xlink:href="#DejaVuSans-Bold-54"/>
      <use xlink:href="#DejaVuSans-Bold-72" x="57.212891"/>
      <use xlink:href="#DejaVuSans-Bold-61" x="106.529297"/>
      <use xlink:href="#DejaVuSans-Bold-69" x="174.009766"/>
      <use xlink:href="#DejaVuSans-Bold-6e" x="208.287109"/>
      <use xlink:href="#DejaVuSans-Bold-20" x="279.478516"/>
      <use xlink:href="#DejaVuSans-Bold-6b" x="314.292969"/>
      <use xlink:href="#DejaVuSans-Bold-20" x="380.796875"/>
      <use xlink:href="#DejaVuSans-Bold-3d" x="415.611328"/>
      <use xlink:href="#DejaVuSans-Bold-3d" x="499.400391"/>
      <use xlink:href="#DejaVuSans-Bold-20" x="583.189453"/>
      <use xlink:href="#DejaVuSans-Bold-74" x="618.003906"/>
      <use xlink:href="#DejaVuSans-Bold-65" x="665.806641"/>
      <use xlink:href="#DejaVuSans-Bold-73" x="733.628906"/>
      <use xlink:href="#DejaVuSans-Bold-74" x="793.150391"/>
      <use xlink:href="#DejaVuSans-Bold-20" x="840.953125"/>
      <use xlink:href="#DejaVuSans-Bold-6b" x="875.767578"/>
     </g>
    </g>
   </g>
   <g id="matplotlib.axis_2">
    <g id="ytick_1">
     <g id="line2d_17">
      <path d="M 155.875938 464.180313 
L 848.88 464.180313 
" clip-path="url(#p92caa1148e)" style="fill: none; stroke: #b0b0b0; stroke-opacity: 0.3; stroke-width: 2; stroke-linecap: square"/>
     </g>
     <g id="line2d_18">
      <defs>
       <path id="m4e50e8f097" d="M 0 0 
L -5 0 
" style="stroke: #000000; stroke-width: 1.5"/>
      </defs>
      <g>
       <use xlink:href="#m4e50e8f097" x="155.875938" y="464.180313" style="stroke: #000000; stroke-width: 1.5"/>
      </g>
     </g>
     <g id="text_10">
      <!-- 75.0 -->
      <g transform="translate(69.44625 477.477578) scale(0.35 -0.35)">
       <defs>
        <path id="DejaVuSans-2e" d="M 684 794 
L 1344 794 
L 1344 0 
L 684 0 
L 684 794 
z
" transform="scale(0.015625)"/>
        <path id="DejaVuSans-30" d="M 2034 4250 
Q 1547 4250 1301 3770 
Q 1056 3291 1056 2328 
Q 1056 1369 1301 889 
Q 1547 409 2034 409 
Q 2525 409 2770 889 
Q 3016 1369 3016 2328 
Q 3016 3291 2770 3770 
Q 2525 4250 2034 4250 
z
M 2034 4750 
Q 2819 4750 3233 4129 
Q 3647 3509 3647 2328 
Q 3647 1150 3233 529 
Q 2819 -91 2034 -91 
Q 1250 -91 836 529 
Q 422 1150 422 2328 
Q 422 3509 836 4129 
Q 1250 4750 2034 4750 
z
" transform="scale(0.015625)"/>
       </defs>
       <use xlink:href="#DejaVuSans-37"/>
       <use xlink:href="#DejaVuSans-35" x="63.623047"/>
       <use xlink:href="#DejaVuSans-2e" x="127.246094"/>
       <use xlink:href="#DejaVuSans-30" x="159.033203"/>
      </g>
     </g>
    </g>
    <g id="ytick_2">
     <g id="line2d_19">
      <path d="M 155.875938 391.553138 
L 848.88 391.553138 
" clip-path="url(#p92caa1148e)" style="fill: none; stroke: #b0b0b0; stroke-opacity: 0.3; stroke-width: 2; stroke-linecap: square"/>
     </g>
     <g id="line2d_20">
      <g>
       <use xlink:href="#m4e50e8f097" x="155.875938" y="391.553138" style="stroke: #000000; stroke-width: 1.5"/>
      </g>
     </g>
     <g id="text_11">
      <!-- 77.5 -->
      <g transform="translate(69.44625 404.850404) scale(0.35 -0.35)">
       <use xlink:href="#DejaVuSans-37"/>
       <use xlink:href="#DejaVuSans-37" x="63.623047"/>
       <use xlink:href="#DejaVuSans-2e" x="127.246094"/>
       <use xlink:href="#DejaVuSans-35" x="159.033203"/>
      </g>
     </g>
    </g>
    <g id="ytick_3">
     <g id="line2d_21">
      <path d="M 155.875938 318.925964 
L 848.88 318.925964 
" clip-path="url(#p92caa1148e)" style="fill: none; stroke: #b0b0b0; stroke-opacity: 0.3; stroke-width: 2; stroke-linecap: square"/>
     </g>
     <g id="line2d_22">
      <g>
       <use xlink:href="#m4e50e8f097" x="155.875938" y="318.925964" style="stroke: #000000; stroke-width: 1.5"/>
      </g>
     </g>
     <g id="text_12">
      <!-- 80.0 -->
      <g transform="translate(69.44625 332.223229) scale(0.35 -0.35)">
       <use xlink:href="#DejaVuSans-38"/>
       <use xlink:href="#DejaVuSans-30" x="63.623047"/>
       <use xlink:href="#DejaVuSans-2e" x="127.246094"/>
       <use xlink:href="#DejaVuSans-30" x="159.033203"/>
      </g>
     </g>
    </g>
    <g id="ytick_4">
     <g id="line2d_23">
      <path d="M 155.875938 246.298789 
L 848.88 246.298789 
" clip-path="url(#p92caa1148e)" style="fill: none; stroke: #b0b0b0; stroke-opacity: 0.3; stroke-width: 2; stroke-linecap: square"/>
     </g>
     <g id="line2d_24">
      <g>
       <use xlink:href="#m4e50e8f097" x="155.875938" y="246.298789" style="stroke: #000000; stroke-width: 1.5"/>
      </g>
     </g>
     <g id="text_13">
      <!-- 82.5 -->
      <g transform="translate(69.44625 259.596055) scale(0.35 -0.35)">
       <use xlink:href="#DejaVuSans-38"/>
       <use xlink:href="#DejaVuSans-32" x="63.623047"/>
       <use xlink:href="#DejaVuSans-2e" x="127.246094"/>
       <use xlink:href="#DejaVuSans-35" x="159.033203"/>
      </g>
     </g>
    </g>
    <g id="ytick_5">
     <g id="line2d_25">
      <path d="M 155.875938 173.671615 
L 848.88 173.671615 
" clip-path="url(#p92caa1148e)" style="fill: none; stroke: #b0b0b0; stroke-opacity: 0.3; stroke-width: 2; stroke-linecap: square"/>
     </g>
     <g id="line2d_26">
      <g>
       <use xlink:href="#m4e50e8f097" x="155.875938" y="173.671615" style="stroke: #000000; stroke-width: 1.5"/>
      </g>
     </g>
     <g id="text_14">
      <!-- 85.0 -->
      <g transform="translate(69.44625 186.96888) scale(0.35 -0.35)">
       <use xlink:href="#DejaVuSans-38"/>
       <use xlink:href="#DejaVuSans-35" x="63.623047"/>
       <use xlink:href="#DejaVuSans-2e" x="127.246094"/>
       <use xlink:href="#DejaVuSans-30" x="159.033203"/>
      </g>
     </g>
    </g>
    <g id="ytick_6">
     <g id="line2d_27">
      <path d="M 155.875938 101.04444 
L 848.88 101.04444 
" clip-path="url(#p92caa1148e)" style="fill: none; stroke: #b0b0b0; stroke-opacity: 0.3; stroke-width: 2; stroke-linecap: square"/>
     </g>
     <g id="line2d_28">
      <g>
       <use xlink:href="#m4e50e8f097" x="155.875938" y="101.04444" style="stroke: #000000; stroke-width: 1.5"/>
      </g>
     </g>
     <g id="text_15">
      <!-- 87.5 -->
      <g transform="translate(69.44625 114.341706) scale(0.35 -0.35)">
       <use xlink:href="#DejaVuSans-38"/>
       <use xlink:href="#DejaVuSans-37" x="63.623047"/>
       <use xlink:href="#DejaVuSans-2e" x="127.246094"/>
       <use xlink:href="#DejaVuSans-35" x="159.033203"/>
      </g>
     </g>
    </g>
    <g id="ytick_7">
     <g id="line2d_29">
      <path d="M 155.875938 28.417266 
L 848.88 28.417266 
" clip-path="url(#p92caa1148e)" style="fill: none; stroke: #b0b0b0; stroke-opacity: 0.3; stroke-width: 2; stroke-linecap: square"/>
     </g>
     <g id="line2d_30">
      <g>
       <use xlink:href="#m4e50e8f097" x="155.875938" y="28.417266" style="stroke: #000000; stroke-width: 1.5"/>
      </g>
     </g>
     <g id="text_16">
      <!-- 90.0 -->
      <g transform="translate(69.44625 41.714531) scale(0.35 -0.35)">
       <defs>
        <path id="DejaVuSans-39" d="M 703 97 
L 703 672 
Q 941 559 1184 500 
Q 1428 441 1663 441 
Q 2288 441 2617 861 
Q 2947 1281 2994 2138 
Q 2813 1869 2534 1725 
Q 2256 1581 1919 1581 
Q 1219 1581 811 2004 
Q 403 2428 403 3163 
Q 403 3881 828 4315 
Q 1253 4750 1959 4750 
Q 2769 4750 3195 4129 
Q 3622 3509 3622 2328 
Q 3622 1225 3098 567 
Q 2575 -91 1691 -91 
Q 1453 -91 1209 -44 
Q 966 3 703 97 
z
M 1959 2075 
Q 2384 2075 2632 2365 
Q 2881 2656 2881 3163 
Q 2881 3666 2632 3958 
Q 2384 4250 1959 4250 
Q 1534 4250 1286 3958 
Q 1038 3666 1038 3163 
Q 1038 2656 1286 2365 
Q 1534 2075 1959 2075 
z
" transform="scale(0.015625)"/>
       </defs>
       <use xlink:href="#DejaVuSans-39"/>
       <use xlink:href="#DejaVuSans-30" x="63.623047"/>
       <use xlink:href="#DejaVuSans-2e" x="127.246094"/>
       <use xlink:href="#DejaVuSans-30" x="159.033203"/>
      </g>
     </g>
    </g>
    <g id="text_17">
     <!-- Accuracy -->
     <g transform="translate(54.225625 378.484414) rotate(-90) scale(0.52 -0.52)">
      <defs>
       <path id="DejaVuSans-Bold-41" d="M 3419 850 
L 1538 850 
L 1241 0 
L 31 0 
L 1759 4666 
L 3194 4666 
L 4922 0 
L 3713 0 
L 3419 850 
z
M 1838 1716 
L 3116 1716 
L 2478 3572 
L 1838 1716 
z
" transform="scale(0.015625)"/>
       <path id="DejaVuSans-Bold-63" d="M 3366 3391 
L 3366 2478 
Q 3138 2634 2908 2709 
Q 2678 2784 2431 2784 
Q 1963 2784 1702 2511 
Q 1441 2238 1441 1747 
Q 1441 1256 1702 982 
Q 1963 709 2431 709 
Q 2694 709 2930 787 
Q 3166 866 3366 1019 
L 3366 103 
Q 3103 6 2833 -42 
Q 2563 -91 2291 -91 
Q 1344 -91 809 395 
Q 275 881 275 1747 
Q 275 2613 809 3098 
Q 1344 3584 2291 3584 
Q 2566 3584 2833 3536 
Q 3100 3488 3366 3391 
z
" transform="scale(0.015625)"/>
       <path id="DejaVuSans-Bold-75" d="M 500 1363 
L 500 3500 
L 1625 3500 
L 1625 3150 
Q 1625 2866 1622 2436 
Q 1619 2006 1619 1863 
Q 1619 1441 1641 1255 
Q 1663 1069 1716 984 
Q 1784 875 1895 815 
Q 2006 756 2150 756 
Q 2500 756 2700 1025 
Q 2900 1294 2900 1772 
L 2900 3500 
L 4019 3500 
L 4019 0 
L 2900 0 
L 2900 506 
Q 2647 200 2364 54 
Q 2081 -91 1741 -91 
Q 1134 -91 817 281 
Q 500 653 500 1363 
z
" transform="scale(0.015625)"/>
       <path id="DejaVuSans-Bold-79" d="M 78 3500 
L 1197 3500 
L 2138 1125 
L 2938 3500 
L 4056 3500 
L 2584 -331 
Q 2363 -916 2067 -1148 
Q 1772 -1381 1288 -1381 
L 641 -1381 
L 641 -647 
L 991 -647 
Q 1275 -647 1404 -556 
Q 1534 -466 1606 -231 
L 1638 -134 
L 78 3500 
z
" transform="scale(0.015625)"/>
      </defs>
      <use xlink:href="#DejaVuSans-Bold-41"/>
      <use xlink:href="#DejaVuSans-Bold-63" x="77.392578"/>
      <use xlink:href="#DejaVuSans-Bold-63" x="136.669922"/>
      <use xlink:href="#DejaVuSans-Bold-75" x="195.947266"/>
      <use xlink:href="#DejaVuSans-Bold-72" x="267.138672"/>
      <use xlink:href="#DejaVuSans-Bold-61" x="316.455078"/>
      <use xlink:href="#DejaVuSans-Bold-63" x="383.935547"/>
      <use xlink:href="#DejaVuSans-Bold-79" x="443.212891"/>
     </g>
    </g>
   </g>
   <g id="line2d_31">
    <path d="M 187.376122 237.583528 
L 277.37665 255.01405 
L 367.377177 269.539485 
L 457.377705 284.06492 
L 547.378233 286.970007 
L 637.37876 289.875094 
L 727.379288 295.685268 
L 817.379815 304.400529 
" clip-path="url(#p92caa1148e)" style="fill: none; stroke: #3b719f; stroke-width: 2; stroke-linecap: square"/>
    <defs>
     <path id="m37e06fe31d" d="M 0 4 
C 1.060812 4 2.078319 3.578535 2.828427 2.828427 
C 3.578535 2.078319 4 1.060812 4 0 
C 4 -1.060812 3.578535 -2.078319 2.828427 -2.828427 
C 2.078319 -3.578535 1.060812 -4 0 -4 
C -1.060812 -4 -2.078319 -3.578535 -2.828427 -2.828427 
C -3.578535 -2.078319 -4 -1.060812 -4 0 
C -4 1.060812 -3.578535 2.078319 -2.828427 2.828427 
C -2.078319 3.578535 -1.060812 4 0 4 
z
" style="stroke: #3b719f"/>
    </defs>
    <g clip-path="url(#p92caa1148e)">
     <use xlink:href="#m37e06fe31d" x="187.376122" y="237.583528" style="fill: #3b719f; stroke: #3b719f"/>
     <use xlink:href="#m37e06fe31d" x="277.37665" y="255.01405" style="fill: #3b719f; stroke: #3b719f"/>
     <use xlink:href="#m37e06fe31d" x="367.377177" y="269.539485" style="fill: #3b719f; stroke: #3b719f"/>
     <use xlink:href="#m37e06fe31d" x="457.377705" y="284.06492" style="fill: #3b719f; stroke: #3b719f"/>
     <use xlink:href="#m37e06fe31d" x="547.378233" y="286.970007" style="fill: #3b719f; stroke: #3b719f"/>
     <use xlink:href="#m37e06fe31d" x="637.37876" y="289.875094" style="fill: #3b719f; stroke: #3b719f"/>
     <use xlink:href="#m37e06fe31d" x="727.379288" y="295.685268" style="fill: #3b719f; stroke: #3b719f"/>
     <use xlink:href="#m37e06fe31d" x="817.379815" y="304.400529" style="fill: #3b719f; stroke: #3b719f"/>
    </g>
   </g>
   <g id="line2d_32">
    <path d="M 187.376122 220.153006 
L 277.37665 240.488615 
L 367.377177 252.108963 
L 457.377705 266.634398 
L 547.378233 275.349659 
L 637.37876 281.159833 
L 727.379288 284.06492 
L 817.379815 286.970007 
" clip-path="url(#p92caa1148e)" style="fill: none; stroke: #ff6163; stroke-width: 2; stroke-linecap: square"/>
    <defs>
     <path id="mcafc66d617" d="M 0 4 
C 1.060812 4 2.078319 3.578535 2.828427 2.828427 
C 3.578535 2.078319 4 1.060812 4 0 
C 4 -1.060812 3.578535 -2.078319 2.828427 -2.828427 
C 2.078319 -3.578535 1.060812 -4 0 -4 
C -1.060812 -4 -2.078319 -3.578535 -2.828427 -2.828427 
C -3.578535 -2.078319 -4 -1.060812 -4 0 
C -4 1.060812 -3.578535 2.078319 -2.828427 2.828427 
C -2.078319 3.578535 -1.060812 4 0 4 
z
" style="stroke: #ff6163"/>
    </defs>
    <g clip-path="url(#p92caa1148e)">
     <use xlink:href="#mcafc66d617" x="187.376122" y="220.153006" style="fill: #ff6163; stroke: #ff6163"/>
     <use xlink:href="#mcafc66d617" x="277.37665" y="240.488615" style="fill: #ff6163; stroke: #ff6163"/>
     <use xlink:href="#mcafc66d617" x="367.377177" y="252.108963" style="fill: #ff6163; stroke: #ff6163"/>
     <use xlink:href="#mcafc66d617" x="457.377705" y="266.634398" style="fill: #ff6163; stroke: #ff6163"/>
     <use xlink:href="#mcafc66d617" x="547.378233" y="275.349659" style="fill: #ff6163; stroke: #ff6163"/>
     <use xlink:href="#mcafc66d617" x="637.37876" y="281.159833" style="fill: #ff6163; stroke: #ff6163"/>
     <use xlink:href="#mcafc66d617" x="727.379288" y="284.06492" style="fill: #ff6163; stroke: #ff6163"/>
     <use xlink:href="#mcafc66d617" x="817.379815" y="286.970007" style="fill: #ff6163; stroke: #ff6163"/>
    </g>
   </g>
   <g id="line2d_33">
    <path d="M 187.376122 225.96318 
L 277.37665 194.007223 
L 367.377177 185.291962 
L 457.377705 185.291962 
L 547.378233 194.007223 
L 637.37876 194.007223 
L 727.379288 194.007223 
L 817.379815 199.817397 
" clip-path="url(#p92caa1148e)" style="fill: none; stroke: #60ab9e; stroke-width: 2; stroke-linecap: square"/>
    <defs>
     <path id="mac6ea70d87" d="M 0 4 
C 1.060812 4 2.078319 3.578535 2.828427 2.828427 
C 3.578535 2.078319 4 1.060812 4 0 
C 4 -1.060812 3.578535 -2.078319 2.828427 -2.828427 
C 2.078319 -3.578535 1.060812 -4 0 -4 
C -1.060812 -4 -2.078319 -3.578535 -2.828427 -2.828427 
C -3.578535 -2.078319 -4 -1.060812 -4 0 
C -4 1.060812 -3.578535 2.078319 -2.828427 2.828427 
C -2.078319 3.578535 -1.060812 4 0 4 
z
" style="stroke: #60ab9e"/>
    </defs>
    <g clip-path="url(#p92caa1148e)">
     <use xlink:href="#mac6ea70d87" x="187.376122" y="225.96318" style="fill: #60ab9e; stroke: #60ab9e"/>
     <use xlink:href="#mac6ea70d87" x="277.37665" y="194.007223" style="fill: #60ab9e; stroke: #60ab9e"/>
     <use xlink:href="#mac6ea70d87" x="367.377177" y="185.291962" style="fill: #60ab9e; stroke: #60ab9e"/>
     <use xlink:href="#mac6ea70d87" x="457.377705" y="185.291962" style="fill: #60ab9e; stroke: #60ab9e"/>
     <use xlink:href="#mac6ea70d87" x="547.378233" y="194.007223" style="fill: #60ab9e; stroke: #60ab9e"/>
     <use xlink:href="#mac6ea70d87" x="637.37876" y="194.007223" style="fill: #60ab9e; stroke: #60ab9e"/>
     <use xlink:href="#mac6ea70d87" x="727.379288" y="194.007223" style="fill: #60ab9e; stroke: #60ab9e"/>
     <use xlink:href="#mac6ea70d87" x="817.379815" y="199.817397" style="fill: #60ab9e; stroke: #60ab9e"/>
    </g>
   </g>
   <g id="line2d_34">
    <path d="M 187.376122 223.058093 
L 277.37665 191.102136 
L 367.377177 164.956354 
L 457.377705 138.810571 
L 547.378233 133.000397 
L 637.37876 124.285136 
L 727.379288 121.380049 
L 817.379815 124.285136 
" clip-path="url(#p92caa1148e)" style="fill: none; stroke: #bebc48; stroke-width: 2; stroke-linecap: square"/>
    <defs>
     <path id="mfedddf6b9c" d="M 0 4 
C 1.060812 4 2.078319 3.578535 2.828427 2.828427 
C 3.578535 2.078319 4 1.060812 4 0 
C 4 -1.060812 3.578535 -2.078319 2.828427 -2.828427 
C 2.078319 -3.578535 1.060812 -4 0 -4 
C -1.060812 -4 -2.078319 -3.578535 -2.828427 -2.828427 
C -3.578535 -2.078319 -4 -1.060812 -4 0 
C -4 1.060812 -3.578535 2.078319 -2.828427 2.828427 
C -2.078319 3.578535 -1.060812 4 0 4 
z
" style="stroke: #bebc48"/>
    </defs>
    <g clip-path="url(#p92caa1148e)">
     <use xlink:href="#mfedddf6b9c" x="187.376122" y="223.058093" style="fill: #bebc48; stroke: #bebc48"/>
     <use xlink:href="#mfedddf6b9c" x="277.37665" y="191.102136" style="fill: #bebc48; stroke: #bebc48"/>
     <use xlink:href="#mfedddf6b9c" x="367.377177" y="164.956354" style="fill: #bebc48; stroke: #bebc48"/>
     <use xlink:href="#mfedddf6b9c" x="457.377705" y="138.810571" style="fill: #bebc48; stroke: #bebc48"/>
     <use xlink:href="#mfedddf6b9c" x="547.378233" y="133.000397" style="fill: #bebc48; stroke: #bebc48"/>
     <use xlink:href="#mfedddf6b9c" x="637.37876" y="124.285136" style="fill: #bebc48; stroke: #bebc48"/>
     <use xlink:href="#mfedddf6b9c" x="727.379288" y="121.380049" style="fill: #bebc48; stroke: #bebc48"/>
     <use xlink:href="#mfedddf6b9c" x="817.379815" y="124.285136" style="fill: #bebc48; stroke: #bebc48"/>
    </g>
   </g>
   <g id="line2d_35">
    <path d="M 187.376122 220.552456 
L 277.37665 221.387668 
L 367.377177 211.619313 
L 457.377705 209.331557 
L 547.378233 162.305462 
L 637.37876 137.394341 
L 727.379288 115.134112 
L 817.379815 81.217221 
" clip-path="url(#p92caa1148e)" style="fill: none; stroke: #a778b4; stroke-width: 2; stroke-linecap: square"/>
    <defs>
     <path id="m3dcc74f74c" d="M 0 4 
C 1.060812 4 2.078319 3.578535 2.828427 2.828427 
C 3.578535 2.078319 4 1.060812 4 0 
C 4 -1.060812 3.578535 -2.078319 2.828427 -2.828427 
C 2.078319 -3.578535 1.060812 -4 0 -4 
C -1.060812 -4 -2.078319 -3.578535 -2.828427 -2.828427 
C -3.578535 -2.078319 -4 -1.060812 -4 0 
C -4 1.060812 -3.578535 2.078319 -2.828427 2.828427 
C -2.078319 3.578535 -1.060812 4 0 4 
z
" style="stroke: #a778b4"/>
    </defs>
    <g clip-path="url(#p92caa1148e)">
     <use xlink:href="#m3dcc74f74c" x="187.376122" y="220.552456" style="fill: #a778b4; stroke: #a778b4"/>
     <use xlink:href="#m3dcc74f74c" x="277.37665" y="221.387668" style="fill: #a778b4; stroke: #a778b4"/>
     <use xlink:href="#m3dcc74f74c" x="367.377177" y="211.619313" style="fill: #a778b4; stroke: #a778b4"/>
     <use xlink:href="#m3dcc74f74c" x="457.377705" y="209.331557" style="fill: #a778b4; stroke: #a778b4"/>
     <use xlink:href="#m3dcc74f74c" x="547.378233" y="162.305462" style="fill: #a778b4; stroke: #a778b4"/>
     <use xlink:href="#m3dcc74f74c" x="637.37876" y="137.394341" style="fill: #a778b4; stroke: #a778b4"/>
     <use xlink:href="#m3dcc74f74c" x="727.379288" y="115.134112" style="fill: #a778b4; stroke: #a778b4"/>
     <use xlink:href="#m3dcc74f74c" x="817.379815" y="81.217221" style="fill: #a778b4; stroke: #a778b4"/>
    </g>
   </g>
   <g id="LineCollection_1">
    <path d="M 187.376122 228.136477 
L 187.376122 212.968435 
" clip-path="url(#p92caa1148e)" style="fill: none; stroke: #a778b4; stroke-width: 2"/>
    <path d="M 277.37665 232.511131 
L 277.37665 210.264205 
" clip-path="url(#p92caa1148e)" style="fill: none; stroke: #a778b4; stroke-width: 2"/>
    <path d="M 367.377177 219.660744 
L 367.377177 203.577883 
" clip-path="url(#p92caa1148e)" style="fill: none; stroke: #a778b4; stroke-width: 2"/>
    <path d="M 457.377705 229.209971 
L 457.377705 189.453143 
" clip-path="url(#p92caa1148e)" style="fill: none; stroke: #a778b4; stroke-width: 2"/>
    <path d="M 547.378233 171.703773 
L 547.378233 152.90715 
" clip-path="url(#p92caa1148e)" style="fill: none; stroke: #a778b4; stroke-width: 2"/>
    <path d="M 637.37876 177.818272 
L 637.37876 96.97041 
" clip-path="url(#p92caa1148e)" style="fill: none; stroke: #a778b4; stroke-width: 2"/>
    <path d="M 727.379288 150.121316 
L 727.379288 80.146908 
" clip-path="url(#p92caa1148e)" style="fill: none; stroke: #a778b4; stroke-width: 2"/>
    <path d="M 817.379815 122.028306 
L 817.379815 40.406137 
" clip-path="url(#p92caa1148e)" style="fill: none; stroke: #a778b4; stroke-width: 2"/>
   </g>
   <g id="line2d_36">
    <defs>
     <path id="md0d07fdd04" d="M 4 0 
L -4 -0 
" style="stroke: #a778b4; stroke-width: 2"/>
    </defs>
    <g clip-path="url(#p92caa1148e)">
     <use xlink:href="#md0d07fdd04" x="187.376122" y="228.136477" style="fill: #a778b4; stroke: #a778b4; stroke-width: 2"/>
     <use xlink:href="#md0d07fdd04" x="277.37665" y="232.511131" style="fill: #a778b4; stroke: #a778b4; stroke-width: 2"/>
     <use xlink:href="#md0d07fdd04" x="367.377177" y="219.660744" style="fill: #a778b4; stroke: #a778b4; stroke-width: 2"/>
     <use xlink:href="#md0d07fdd04" x="457.377705" y="229.209971" style="fill: #a778b4; stroke: #a778b4; stroke-width: 2"/>
     <use xlink:href="#md0d07fdd04" x="547.378233" y="171.703773" style="fill: #a778b4; stroke: #a778b4; stroke-width: 2"/>
     <use xlink:href="#md0d07fdd04" x="637.37876" y="177.818272" style="fill: #a778b4; stroke: #a778b4; stroke-width: 2"/>
     <use xlink:href="#md0d07fdd04" x="727.379288" y="150.121316" style="fill: #a778b4; stroke: #a778b4; stroke-width: 2"/>
     <use xlink:href="#md0d07fdd04" x="817.379815" y="122.028306" style="fill: #a778b4; stroke: #a778b4; stroke-width: 2"/>
    </g>
   </g>
   <g id="line2d_37">
    <g clip-path="url(#p92caa1148e)">
     <use xlink:href="#md0d07fdd04" x="187.376122" y="212.968435" style="fill: #a778b4; stroke: #a778b4; stroke-width: 2"/>
     <use xlink:href="#md0d07fdd04" x="277.37665" y="210.264205" style="fill: #a778b4; stroke: #a778b4; stroke-width: 2"/>
     <use xlink:href="#md0d07fdd04" x="367.377177" y="203.577883" style="fill: #a778b4; stroke: #a778b4; stroke-width: 2"/>
     <use xlink:href="#md0d07fdd04" x="457.377705" y="189.453143" style="fill: #a778b4; stroke: #a778b4; stroke-width: 2"/>
     <use xlink:href="#md0d07fdd04" x="547.378233" y="152.90715" style="fill: #a778b4; stroke: #a778b4; stroke-width: 2"/>
     <use xlink:href="#md0d07fdd04" x="637.37876" y="96.97041" style="fill: #a778b4; stroke: #a778b4; stroke-width: 2"/>
     <use xlink:href="#md0d07fdd04" x="727.379288" y="80.146908" style="fill: #a778b4; stroke: #a778b4; stroke-width: 2"/>
     <use xlink:href="#md0d07fdd04" x="817.379815" y="40.406137" style="fill: #a778b4; stroke: #a778b4; stroke-width: 2"/>
    </g>
   </g>
   <g id="line2d_38">
    <g clip-path="url(#p92caa1148e)">
     <use xlink:href="#m3dcc74f74c" x="187.376122" y="220.552456" style="fill: #a778b4; stroke: #a778b4"/>
     <use xlink:href="#m3dcc74f74c" x="277.37665" y="221.387668" style="fill: #a778b4; stroke: #a778b4"/>
     <use xlink:href="#m3dcc74f74c" x="367.377177" y="211.619313" style="fill: #a778b4; stroke: #a778b4"/>
     <use xlink:href="#m3dcc74f74c" x="457.377705" y="209.331557" style="fill: #a778b4; stroke: #a778b4"/>
     <use xlink:href="#m3dcc74f74c" x="547.378233" y="162.305462" style="fill: #a778b4; stroke: #a778b4"/>
     <use xlink:href="#m3dcc74f74c" x="637.37876" y="137.394341" style="fill: #a778b4; stroke: #a778b4"/>
     <use xlink:href="#m3dcc74f74c" x="727.379288" y="115.134112" style="fill: #a778b4; stroke: #a778b4"/>
     <use xlink:href="#m3dcc74f74c" x="817.379815" y="81.217221" style="fill: #a778b4; stroke: #a778b4"/>
    </g>
   </g>
   <g id="patch_3">
    <path d="M 155.875938 464.180313 
L 155.875938 28.417266 
" style="fill: none; stroke: #000000; stroke-width: 5; stroke-linejoin: miter; stroke-linecap: square"/>
   </g>
   <g id="patch_4">
    <path d="M 155.875938 464.180313 
L 848.88 464.180313 
" style="fill: none; stroke: #000000; stroke-width: 5; stroke-linejoin: miter; stroke-linecap: square"/>
   </g>
   <g id="legend_1">
    <g id="line2d_39">
     <path d="M 182.875938 332.3725 
L 212.875938 332.3725 
L 242.875938 332.3725 
" style="fill: none; stroke: #3b719f; stroke-width: 2; stroke-linecap: square"/>
     <g>
      <use xlink:href="#m37e06fe31d" x="212.875938" y="332.3725" style="fill: #3b719f; stroke: #3b719f"/>
     </g>
    </g>
    <g id="text_18">
     <!-- LF -->
     <g transform="translate(266.875938 342.8725) scale(0.3 -0.3)">
      <defs>
       <path id="DejaVuSans-4c" d="M 628 4666 
L 1259 4666 
L 1259 531 
L 3531 531 
L 3531 0 
L 628 0 
L 628 4666 
z
" transform="scale(0.015625)"/>
       <path id="DejaVuSans-46" d="M 628 4666 
L 3309 4666 
L 3309 4134 
L 1259 4134 
L 1259 2759 
L 3109 2759 
L 3109 2228 
L 1259 2228 
L 1259 0 
L 628 0 
L 628 4666 
z
" transform="scale(0.015625)"/>
      </defs>
      <use xlink:href="#DejaVuSans-4c"/>
      <use xlink:href="#DejaVuSans-46" x="55.712891"/>
     </g>
    </g>
    <g id="line2d_40">
     <path d="M 182.875938 376.406875 
L 212.875938 376.406875 
L 242.875938 376.406875 
" style="fill: none; stroke: #ff6163; stroke-width: 2; stroke-linecap: square"/>
     <g>
      <use xlink:href="#mcafc66d617" x="212.875938" y="376.406875" style="fill: #ff6163; stroke: #ff6163"/>
     </g>
    </g>
    <g id="text_19">
     <!-- NLF -->
     <g transform="translate(266.875938 386.906875) scale(0.3 -0.3)">
      <defs>
       <path id="DejaVuSans-4e" d="M 628 4666 
L 1478 4666 
L 3547 763 
L 3547 4666 
L 4159 4666 
L 4159 0 
L 3309 0 
L 1241 3903 
L 1241 0 
L 628 0 
L 628 4666 
z
" transform="scale(0.015625)"/>
      </defs>
      <use xlink:href="#DejaVuSans-4e"/>
      <use xlink:href="#DejaVuSans-4c" x="74.804688"/>
      <use xlink:href="#DejaVuSans-46" x="130.517578"/>
     </g>
    </g>
    <g id="line2d_41">
     <path d="M 182.875938 420.44125 
L 212.875938 420.44125 
L 242.875938 420.44125 
" style="fill: none; stroke: #60ab9e; stroke-width: 2; stroke-linecap: square"/>
     <g>
      <use xlink:href="#mac6ea70d87" x="212.875938" y="420.44125" style="fill: #60ab9e; stroke: #60ab9e"/>
     </g>
    </g>
    <g id="text_20">
     <!-- NLF 2 -->
     <g transform="translate(266.875938 430.94125) scale(0.3 -0.3)">
      <defs>
       <path id="DejaVuSans-20" transform="scale(0.015625)"/>
      </defs>
      <use xlink:href="#DejaVuSans-4e"/>
      <use xlink:href="#DejaVuSans-4c" x="74.804688"/>
      <use xlink:href="#DejaVuSans-46" x="130.517578"/>
      <use xlink:href="#DejaVuSans-20" x="188.037109"/>
      <use xlink:href="#DejaVuSans-32" x="219.824219"/>
     </g>
    </g>
    <g id="line2d_42">
     <path d="M 411.911875 332.3725 
L 441.911875 332.3725 
L 471.911875 332.3725 
" style="fill: none; stroke: #bebc48; stroke-width: 2; stroke-linecap: square"/>
     <g>
      <use xlink:href="#mfedddf6b9c" x="441.911875" y="332.3725" style="fill: #bebc48; stroke: #bebc48"/>
     </g>
    </g>
    <g id="text_21">
     <!-- NLF 3 -->
     <g transform="translate(495.911875 342.8725) scale(0.3 -0.3)">
      <use xlink:href="#DejaVuSans-4e"/>
      <use xlink:href="#DejaVuSans-4c" x="74.804688"/>
      <use xlink:href="#DejaVuSans-46" x="130.517578"/>
      <use xlink:href="#DejaVuSans-20" x="188.037109"/>
      <use xlink:href="#DejaVuSans-33" x="219.824219"/>
     </g>
    </g>
    <g id="line2d_43">
     <path d="M 411.911875 376.406875 
L 441.911875 376.406875 
L 471.911875 376.406875 
" style="fill: none; stroke: #a778b4; stroke-width: 2; stroke-linecap: square"/>
     <g>
      <use xlink:href="#m3dcc74f74c" x="441.911875" y="376.406875" style="fill: #a778b4; stroke: #a778b4"/>
     </g>
    </g>
    <g id="text_22">
     <!-- RNN -->
     <g transform="translate(495.911875 386.906875) scale(0.3 -0.3)">
      <defs>
       <path id="DejaVuSans-52" d="M 2841 2188 
Q 3044 2119 3236 1894 
Q 3428 1669 3622 1275 
L 4263 0 
L 3584 0 
L 2988 1197 
Q 2756 1666 2539 1819 
Q 2322 1972 1947 1972 
L 1259 1972 
L 1259 0 
L 628 0 
L 628 4666 
L 2053 4666 
Q 2853 4666 3247 4331 
Q 3641 3997 3641 3322 
Q 3641 2881 3436 2590 
Q 3231 2300 2841 2188 
z
M 1259 4147 
L 1259 2491 
L 2053 2491 
Q 2509 2491 2742 2702 
Q 2975 2913 2975 3322 
Q 2975 3731 2742 3939 
Q 2509 4147 2053 4147 
L 1259 4147 
z
" transform="scale(0.015625)"/>
      </defs>
      <use xlink:href="#DejaVuSans-52"/>
      <use xlink:href="#DejaVuSans-4e" x="69.482422"/>
      <use xlink:href="#DejaVuSans-4e" x="144.287109"/>
     </g>
    </g>
   </g>
  </g>
 </g>
 <defs>
  <clipPath id="p92caa1148e">
   <rect x="155.875938" y="28.417266" width="693.004062" height="435.763047"/>
  </clipPath>
 </defs>
</svg>
