<?xml version="1.0" encoding="utf-8" standalone="no"?>
<!DOCTYPE svg PUBLIC "-//W3C//DTD SVG 1.1//EN"
  "http://www.w3.org/Graphics/SVG/1.1/DTD/svg11.dtd">
<svg xmlns:xlink="http://www.w3.org/1999/xlink" width="720pt" height="432pt" viewBox="0 0 720 432" xmlns="http://www.w3.org/2000/svg" version="1.1">
 <metadata>
  <rdf:RDF xmlns:dc="http://purl.org/dc/elements/1.1/" xmlns:cc="http://creativecommons.org/ns#" xmlns:rdf="http://www.w3.org/1999/02/22-rdf-syntax-ns#">
   <cc:Work>
    <dc:type rdf:resource="http://purl.org/dc/dcmitype/StillImage"/>
    <dc:date>2024-11-25T20:29:06.700301</dc:date>
    <dc:format>image/svg+xml</dc:format>
    <dc:creator>
     <cc:Agent>
      <dc:title>Matplotlib v3.8.4, https://matplotlib.org/</dc:title>
     </cc:Agent>
    </dc:creator>
   </cc:Work>
  </rdf:RDF>
 </metadata>
 <defs>
  <style type="text/css">*{stroke-linejoin: round; stroke-linecap: butt}</style>
 </defs>
 <g id="figure_1">
  <g id="patch_1">
   <path d="M 0 432 
L 720 432 
L 720 0 
L 0 0 
z
" style="fill: #ffffff"/>
  </g>
  <g id="axes_1">
   <g id="patch_2">
    <path d="M 71.576563 369.53875 
L 704.88 369.53875 
L 704.88 34.797188 
L 71.576563 34.797188 
z
" style="fill: #ffffff"/>
   </g>
   <g id="matplotlib.axis_1">
    <g id="xtick_1">
     <g id="line2d_1">
      <path d="M 141.486682 369.53875 
L 141.486682 34.797188 
" clip-path="url(#p0550759ed6)" style="fill: none; stroke: #b0b0b0; stroke-opacity: 0.3; stroke-width: 0.5; stroke-linecap: square"/>
     </g>
     <g id="line2d_2">
      <defs>
       <path id="mf2981f5d9e" d="M 0 0 
L 0 5 
" style="stroke: #000000; stroke-width: 1.5"/>
      </defs>
      <g>
       <use xlink:href="#mf2981f5d9e" x="141.486682" y="369.53875" style="stroke: #000000; stroke-width: 1.5"/>
      </g>
     </g>
     <g id="text_1">
      <!-- −6 -->
      <g transform="translate(128.218713 391.715937) scale(0.18 -0.18)">
       <defs>
        <path id="DejaVuSans-2212" d="M 678 2272 
L 4684 2272 
L 4684 1741 
L 678 1741 
L 678 2272 
z
" transform="scale(0.015625)"/>
        <path id="DejaVuSans-36" d="M 2113 2584 
Q 1688 2584 1439 2293 
Q 1191 2003 1191 1497 
Q 1191 994 1439 701 
Q 1688 409 2113 409 
Q 2538 409 2786 701 
Q 3034 994 3034 1497 
Q 3034 2003 2786 2293 
Q 2538 2584 2113 2584 
z
M 3366 4563 
L 3366 3988 
Q 3128 4100 2886 4159 
Q 2644 4219 2406 4219 
Q 1781 4219 1451 3797 
Q 1122 3375 1075 2522 
Q 1259 2794 1537 2939 
Q 1816 3084 2150 3084 
Q 2853 3084 3261 2657 
Q 3669 2231 3669 1497 
Q 3669 778 3244 343 
Q 2819 -91 2113 -91 
Q 1303 -91 875 529 
Q 447 1150 447 2328 
Q 447 3434 972 4092 
Q 1497 4750 2381 4750 
Q 2619 4750 2861 4703 
Q 3103 4656 3366 4563 
z
" transform="scale(0.015625)"/>
       </defs>
       <use xlink:href="#DejaVuSans-2212"/>
       <use xlink:href="#DejaVuSans-36" x="83.789062"/>
      </g>
     </g>
    </g>
    <g id="xtick_2">
     <g id="line2d_3">
      <path d="M 223.733882 369.53875 
L 223.733882 34.797188 
" clip-path="url(#p0550759ed6)" style="fill: none; stroke: #b0b0b0; stroke-opacity: 0.3; stroke-width: 0.5; stroke-linecap: square"/>
     </g>
     <g id="line2d_4">
      <g>
       <use xlink:href="#mf2981f5d9e" x="223.733882" y="369.53875" style="stroke: #000000; stroke-width: 1.5"/>
      </g>
     </g>
     <g id="text_2">
      <!-- −4 -->
      <g transform="translate(210.465913 391.715937) scale(0.18 -0.18)">
       <defs>
        <path id="DejaVuSans-34" d="M 2419 4116 
L 825 1625 
L 2419 1625 
L 2419 4116 
z
M 2253 4666 
L 3047 4666 
L 3047 1625 
L 3713 1625 
L 3713 1100 
L 3047 1100 
L 3047 0 
L 2419 0 
L 2419 1100 
L 313 1100 
L 313 1709 
L 2253 4666 
z
" transform="scale(0.015625)"/>
       </defs>
       <use xlink:href="#DejaVuSans-2212"/>
       <use xlink:href="#DejaVuSans-34" x="83.789062"/>
      </g>
     </g>
    </g>
    <g id="xtick_3">
     <g id="line2d_5">
      <path d="M 305.981082 369.53875 
L 305.981082 34.797188 
" clip-path="url(#p0550759ed6)" style="fill: none; stroke: #b0b0b0; stroke-opacity: 0.3; stroke-width: 0.5; stroke-linecap: square"/>
     </g>
     <g id="line2d_6">
      <g>
       <use xlink:href="#mf2981f5d9e" x="305.981082" y="369.53875" style="stroke: #000000; stroke-width: 1.5"/>
      </g>
     </g>
     <g id="text_3">
      <!-- −2 -->
      <g transform="translate(292.713113 391.715937) scale(0.18 -0.18)">
       <defs>
        <path id="DejaVuSans-32" d="M 1228 531 
L 3431 531 
L 3431 0 
L 469 0 
L 469 531 
Q 828 903 1448 1529 
Q 2069 2156 2228 2338 
Q 2531 2678 2651 2914 
Q 2772 3150 2772 3378 
Q 2772 3750 2511 3984 
Q 2250 4219 1831 4219 
Q 1534 4219 1204 4116 
Q 875 4013 500 3803 
L 500 4441 
Q 881 4594 1212 4672 
Q 1544 4750 1819 4750 
Q 2544 4750 2975 4387 
Q 3406 4025 3406 3419 
Q 3406 3131 3298 2873 
Q 3191 2616 2906 2266 
Q 2828 2175 2409 1742 
Q 1991 1309 1228 531 
z
" transform="scale(0.015625)"/>
       </defs>
       <use xlink:href="#DejaVuSans-2212"/>
       <use xlink:href="#DejaVuSans-32" x="83.789062"/>
      </g>
     </g>
    </g>
    <g id="xtick_4">
     <g id="line2d_7">
      <path d="M 388.228281 369.53875 
L 388.228281 34.797188 
" clip-path="url(#p0550759ed6)" style="fill: none; stroke: #b0b0b0; stroke-opacity: 0.3; stroke-width: 0.5; stroke-linecap: square"/>
     </g>
     <g id="line2d_8">
      <g>
       <use xlink:href="#mf2981f5d9e" x="388.228281" y="369.53875" style="stroke: #000000; stroke-width: 1.5"/>
      </g>
     </g>
     <g id="text_4">
      <!-- 0 -->
      <g transform="translate(382.502031 391.715937) scale(0.18 -0.18)">
       <defs>
        <path id="DejaVuSans-30" d="M 2034 4250 
Q 1547 4250 1301 3770 
Q 1056 3291 1056 2328 
Q 1056 1369 1301 889 
Q 1547 409 2034 409 
Q 2525 409 2770 889 
Q 3016 1369 3016 2328 
Q 3016 3291 2770 3770 
Q 2525 4250 2034 4250 
z
M 2034 4750 
Q 2819 4750 3233 4129 
Q 3647 3509 3647 2328 
Q 3647 1150 3233 529 
Q 2819 -91 2034 -91 
Q 1250 -91 836 529 
Q 422 1150 422 2328 
Q 422 3509 836 4129 
Q 1250 4750 2034 4750 
z
" transform="scale(0.015625)"/>
       </defs>
       <use xlink:href="#DejaVuSans-30"/>
      </g>
     </g>
    </g>
    <g id="xtick_5">
     <g id="line2d_9">
      <path d="M 470.475481 369.53875 
L 470.475481 34.797188 
" clip-path="url(#p0550759ed6)" style="fill: none; stroke: #b0b0b0; stroke-opacity: 0.3; stroke-width: 0.5; stroke-linecap: square"/>
     </g>
     <g id="line2d_10">
      <g>
       <use xlink:href="#mf2981f5d9e" x="470.475481" y="369.53875" style="stroke: #000000; stroke-width: 1.5"/>
      </g>
     </g>
     <g id="text_5">
      <!-- 2 -->
      <g transform="translate(464.749231 391.715937) scale(0.18 -0.18)">
       <use xlink:href="#DejaVuSans-32"/>
      </g>
     </g>
    </g>
    <g id="xtick_6">
     <g id="line2d_11">
      <path d="M 552.722681 369.53875 
L 552.722681 34.797188 
" clip-path="url(#p0550759ed6)" style="fill: none; stroke: #b0b0b0; stroke-opacity: 0.3; stroke-width: 0.5; stroke-linecap: square"/>
     </g>
     <g id="line2d_12">
      <g>
       <use xlink:href="#mf2981f5d9e" x="552.722681" y="369.53875" style="stroke: #000000; stroke-width: 1.5"/>
      </g>
     </g>
     <g id="text_6">
      <!-- 4 -->
      <g transform="translate(546.996431 391.715937) scale(0.18 -0.18)">
       <use xlink:href="#DejaVuSans-34"/>
      </g>
     </g>
    </g>
    <g id="xtick_7">
     <g id="line2d_13">
      <path d="M 634.96988 369.53875 
L 634.96988 34.797188 
" clip-path="url(#p0550759ed6)" style="fill: none; stroke: #b0b0b0; stroke-opacity: 0.3; stroke-width: 0.5; stroke-linecap: square"/>
     </g>
     <g id="line2d_14">
      <g>
       <use xlink:href="#mf2981f5d9e" x="634.96988" y="369.53875" style="stroke: #000000; stroke-width: 1.5"/>
      </g>
     </g>
     <g id="text_7">
      <!-- 6 -->
      <g transform="translate(629.24363 391.715937) scale(0.18 -0.18)">
       <use xlink:href="#DejaVuSans-36"/>
      </g>
     </g>
    </g>
    <g id="text_8">
     <!-- Train - Test -->
     <g transform="translate(339.950312 413.136562) scale(0.18 -0.18)">
      <defs>
       <path id="DejaVuSans-54" d="M -19 4666 
L 3928 4666 
L 3928 4134 
L 2272 4134 
L 2272 0 
L 1638 0 
L 1638 4134 
L -19 4134 
L -19 4666 
z
" transform="scale(0.015625)"/>
       <path id="DejaVuSans-72" d="M 2631 2963 
Q 2534 3019 2420 3045 
Q 2306 3072 2169 3072 
Q 1681 3072 1420 2755 
Q 1159 2438 1159 1844 
L 1159 0 
L 581 0 
L 581 3500 
L 1159 3500 
L 1159 2956 
Q 1341 3275 1631 3429 
Q 1922 3584 2338 3584 
Q 2397 3584 2469 3576 
Q 2541 3569 2628 3553 
L 2631 2963 
z
" transform="scale(0.015625)"/>
       <path id="DejaVuSans-61" d="M 2194 1759 
Q 1497 1759 1228 1600 
Q 959 1441 959 1056 
Q 959 750 1161 570 
Q 1363 391 1709 391 
Q 2188 391 2477 730 
Q 2766 1069 2766 1631 
L 2766 1759 
L 2194 1759 
z
M 3341 1997 
L 3341 0 
L 2766 0 
L 2766 531 
Q 2569 213 2275 61 
Q 1981 -91 1556 -91 
Q 1019 -91 701 211 
Q 384 513 384 1019 
Q 384 1609 779 1909 
Q 1175 2209 1959 2209 
L 2766 2209 
L 2766 2266 
Q 2766 2663 2505 2880 
Q 2244 3097 1772 3097 
Q 1472 3097 1187 3025 
Q 903 2953 641 2809 
L 641 3341 
Q 956 3463 1253 3523 
Q 1550 3584 1831 3584 
Q 2591 3584 2966 3190 
Q 3341 2797 3341 1997 
z
" transform="scale(0.015625)"/>
       <path id="DejaVuSans-69" d="M 603 3500 
L 1178 3500 
L 1178 0 
L 603 0 
L 603 3500 
z
M 603 4863 
L 1178 4863 
L 1178 4134 
L 603 4134 
L 603 4863 
z
" transform="scale(0.015625)"/>
       <path id="DejaVuSans-6e" d="M 3513 2113 
L 3513 0 
L 2938 0 
L 2938 2094 
Q 2938 2591 2744 2837 
Q 2550 3084 2163 3084 
Q 1697 3084 1428 2787 
Q 1159 2491 1159 1978 
L 1159 0 
L 581 0 
L 581 3500 
L 1159 3500 
L 1159 2956 
Q 1366 3272 1645 3428 
Q 1925 3584 2291 3584 
Q 2894 3584 3203 3211 
Q 3513 2838 3513 2113 
z
" transform="scale(0.015625)"/>
       <path id="DejaVuSans-20" transform="scale(0.015625)"/>
       <path id="DejaVuSans-2d" d="M 313 2009 
L 1997 2009 
L 1997 1497 
L 313 1497 
L 313 2009 
z
" transform="scale(0.015625)"/>
       <path id="DejaVuSans-65" d="M 3597 1894 
L 3597 1613 
L 953 1613 
Q 991 1019 1311 708 
Q 1631 397 2203 397 
Q 2534 397 2845 478 
Q 3156 559 3463 722 
L 3463 178 
Q 3153 47 2828 -22 
Q 2503 -91 2169 -91 
Q 1331 -91 842 396 
Q 353 884 353 1716 
Q 353 2575 817 3079 
Q 1281 3584 2069 3584 
Q 2775 3584 3186 3129 
Q 3597 2675 3597 1894 
z
M 3022 2063 
Q 3016 2534 2758 2815 
Q 2500 3097 2075 3097 
Q 1594 3097 1305 2825 
Q 1016 2553 972 2059 
L 3022 2063 
z
" transform="scale(0.015625)"/>
       <path id="DejaVuSans-73" d="M 2834 3397 
L 2834 2853 
Q 2591 2978 2328 3040 
Q 2066 3103 1784 3103 
Q 1356 3103 1142 2972 
Q 928 2841 928 2578 
Q 928 2378 1081 2264 
Q 1234 2150 1697 2047 
L 1894 2003 
Q 2506 1872 2764 1633 
Q 3022 1394 3022 966 
Q 3022 478 2636 193 
Q 2250 -91 1575 -91 
Q 1294 -91 989 -36 
Q 684 19 347 128 
L 347 722 
Q 666 556 975 473 
Q 1284 391 1588 391 
Q 1994 391 2212 530 
Q 2431 669 2431 922 
Q 2431 1156 2273 1281 
Q 2116 1406 1581 1522 
L 1381 1569 
Q 847 1681 609 1914 
Q 372 2147 372 2553 
Q 372 3047 722 3315 
Q 1072 3584 1716 3584 
Q 2034 3584 2315 3537 
Q 2597 3491 2834 3397 
z
" transform="scale(0.015625)"/>
       <path id="DejaVuSans-74" d="M 1172 4494 
L 1172 3500 
L 2356 3500 
L 2356 3053 
L 1172 3053 
L 1172 1153 
Q 1172 725 1289 603 
Q 1406 481 1766 481 
L 2356 481 
L 2356 0 
L 1766 0 
Q 1100 0 847 248 
Q 594 497 594 1153 
L 594 3053 
L 172 3053 
L 172 3500 
L 594 3500 
L 594 4494 
L 1172 4494 
z
" transform="scale(0.015625)"/>
      </defs>
      <use xlink:href="#DejaVuSans-54"/>
      <use xlink:href="#DejaVuSans-72" x="46.333984"/>
      <use xlink:href="#DejaVuSans-61" x="87.447266"/>
      <use xlink:href="#DejaVuSans-69" x="148.726562"/>
      <use xlink:href="#DejaVuSans-6e" x="176.509766"/>
      <use xlink:href="#DejaVuSans-20" x="239.888672"/>
      <use xlink:href="#DejaVuSans-2d" x="271.675781"/>
      <use xlink:href="#DejaVuSans-20" x="307.759766"/>
      <use xlink:href="#DejaVuSans-54" x="339.546875"/>
      <use xlink:href="#DejaVuSans-65" x="383.630859"/>
      <use xlink:href="#DejaVuSans-73" x="445.154297"/>
      <use xlink:href="#DejaVuSans-74" x="497.253906"/>
     </g>
    </g>
   </g>
   <g id="matplotlib.axis_2">
    <g id="ytick_1">
     <g id="line2d_15">
      <path d="M 71.576563 369.53875 
L 704.88 369.53875 
" clip-path="url(#p0550759ed6)" style="fill: none; stroke: #b0b0b0; stroke-opacity: 0.3; stroke-width: 0.5; stroke-linecap: square"/>
     </g>
     <g id="line2d_16">
      <defs>
       <path id="m234bfe0021" d="M 0 0 
L -5 0 
" style="stroke: #000000; stroke-width: 1.5"/>
      </defs>
      <g>
       <use xlink:href="#m234bfe0021" x="71.576563" y="369.53875" style="stroke: #000000; stroke-width: 1.5"/>
      </g>
     </g>
     <g id="text_9">
      <!-- −8 -->
      <g transform="translate(36.540625 376.377344) scale(0.18 -0.18)">
       <defs>
        <path id="DejaVuSans-38" d="M 2034 2216 
Q 1584 2216 1326 1975 
Q 1069 1734 1069 1313 
Q 1069 891 1326 650 
Q 1584 409 2034 409 
Q 2484 409 2743 651 
Q 3003 894 3003 1313 
Q 3003 1734 2745 1975 
Q 2488 2216 2034 2216 
z
M 1403 2484 
Q 997 2584 770 2862 
Q 544 3141 544 3541 
Q 544 4100 942 4425 
Q 1341 4750 2034 4750 
Q 2731 4750 3128 4425 
Q 3525 4100 3525 3541 
Q 3525 3141 3298 2862 
Q 3072 2584 2669 2484 
Q 3125 2378 3379 2068 
Q 3634 1759 3634 1313 
Q 3634 634 3220 271 
Q 2806 -91 2034 -91 
Q 1263 -91 848 271 
Q 434 634 434 1313 
Q 434 1759 690 2068 
Q 947 2378 1403 2484 
z
M 1172 3481 
Q 1172 3119 1398 2916 
Q 1625 2713 2034 2713 
Q 2441 2713 2670 2916 
Q 2900 3119 2900 3481 
Q 2900 3844 2670 4047 
Q 2441 4250 2034 4250 
Q 1625 4250 1398 4047 
Q 1172 3844 1172 3481 
z
" transform="scale(0.015625)"/>
       </defs>
       <use xlink:href="#DejaVuSans-2212"/>
       <use xlink:href="#DejaVuSans-38" x="83.789062"/>
      </g>
     </g>
    </g>
    <g id="ytick_2">
     <g id="line2d_17">
      <path d="M 71.576563 332.345243 
L 704.88 332.345243 
" clip-path="url(#p0550759ed6)" style="fill: none; stroke: #b0b0b0; stroke-opacity: 0.3; stroke-width: 0.5; stroke-linecap: square"/>
     </g>
     <g id="line2d_18">
      <g>
       <use xlink:href="#m234bfe0021" x="71.576563" y="332.345243" style="stroke: #000000; stroke-width: 1.5"/>
      </g>
     </g>
     <g id="text_10">
      <!-- −7 -->
      <g transform="translate(36.540625 339.183837) scale(0.18 -0.18)">
       <defs>
        <path id="DejaVuSans-37" d="M 525 4666 
L 3525 4666 
L 3525 4397 
L 1831 0 
L 1172 0 
L 2766 4134 
L 525 4134 
L 525 4666 
z
" transform="scale(0.015625)"/>
       </defs>
       <use xlink:href="#DejaVuSans-2212"/>
       <use xlink:href="#DejaVuSans-37" x="83.789062"/>
      </g>
     </g>
    </g>
    <g id="ytick_3">
     <g id="line2d_19">
      <path d="M 71.576563 295.151736 
L 704.88 295.151736 
" clip-path="url(#p0550759ed6)" style="fill: none; stroke: #b0b0b0; stroke-opacity: 0.3; stroke-width: 0.5; stroke-linecap: square"/>
     </g>
     <g id="line2d_20">
      <g>
       <use xlink:href="#m234bfe0021" x="71.576563" y="295.151736" style="stroke: #000000; stroke-width: 1.5"/>
      </g>
     </g>
     <g id="text_11">
      <!-- −6 -->
      <g transform="translate(36.540625 301.99033) scale(0.18 -0.18)">
       <use xlink:href="#DejaVuSans-2212"/>
       <use xlink:href="#DejaVuSans-36" x="83.789062"/>
      </g>
     </g>
    </g>
    <g id="ytick_4">
     <g id="line2d_21">
      <path d="M 71.576563 257.958229 
L 704.88 257.958229 
" clip-path="url(#p0550759ed6)" style="fill: none; stroke: #b0b0b0; stroke-opacity: 0.3; stroke-width: 0.5; stroke-linecap: square"/>
     </g>
     <g id="line2d_22">
      <g>
       <use xlink:href="#m234bfe0021" x="71.576563" y="257.958229" style="stroke: #000000; stroke-width: 1.5"/>
      </g>
     </g>
     <g id="text_12">
      <!-- −5 -->
      <g transform="translate(36.540625 264.796823) scale(0.18 -0.18)">
       <defs>
        <path id="DejaVuSans-35" d="M 691 4666 
L 3169 4666 
L 3169 4134 
L 1269 4134 
L 1269 2991 
Q 1406 3038 1543 3061 
Q 1681 3084 1819 3084 
Q 2600 3084 3056 2656 
Q 3513 2228 3513 1497 
Q 3513 744 3044 326 
Q 2575 -91 1722 -91 
Q 1428 -91 1123 -41 
Q 819 9 494 109 
L 494 744 
Q 775 591 1075 516 
Q 1375 441 1709 441 
Q 2250 441 2565 725 
Q 2881 1009 2881 1497 
Q 2881 1984 2565 2268 
Q 2250 2553 1709 2553 
Q 1456 2553 1204 2497 
Q 953 2441 691 2322 
L 691 4666 
z
" transform="scale(0.015625)"/>
       </defs>
       <use xlink:href="#DejaVuSans-2212"/>
       <use xlink:href="#DejaVuSans-35" x="83.789062"/>
      </g>
     </g>
    </g>
    <g id="ytick_5">
     <g id="line2d_23">
      <path d="M 71.576563 220.764722 
L 704.88 220.764722 
" clip-path="url(#p0550759ed6)" style="fill: none; stroke: #b0b0b0; stroke-opacity: 0.3; stroke-width: 0.5; stroke-linecap: square"/>
     </g>
     <g id="line2d_24">
      <g>
       <use xlink:href="#m234bfe0021" x="71.576563" y="220.764722" style="stroke: #000000; stroke-width: 1.5"/>
      </g>
     </g>
     <g id="text_13">
      <!-- −4 -->
      <g transform="translate(36.540625 227.603316) scale(0.18 -0.18)">
       <use xlink:href="#DejaVuSans-2212"/>
       <use xlink:href="#DejaVuSans-34" x="83.789062"/>
      </g>
     </g>
    </g>
    <g id="ytick_6">
     <g id="line2d_25">
      <path d="M 71.576563 183.571215 
L 704.88 183.571215 
" clip-path="url(#p0550759ed6)" style="fill: none; stroke: #b0b0b0; stroke-opacity: 0.3; stroke-width: 0.5; stroke-linecap: square"/>
     </g>
     <g id="line2d_26">
      <g>
       <use xlink:href="#m234bfe0021" x="71.576563" y="183.571215" style="stroke: #000000; stroke-width: 1.5"/>
      </g>
     </g>
     <g id="text_14">
      <!-- −3 -->
      <g transform="translate(36.540625 190.409809) scale(0.18 -0.18)">
       <defs>
        <path id="DejaVuSans-33" d="M 2597 2516 
Q 3050 2419 3304 2112 
Q 3559 1806 3559 1356 
Q 3559 666 3084 287 
Q 2609 -91 1734 -91 
Q 1441 -91 1130 -33 
Q 819 25 488 141 
L 488 750 
Q 750 597 1062 519 
Q 1375 441 1716 441 
Q 2309 441 2620 675 
Q 2931 909 2931 1356 
Q 2931 1769 2642 2001 
Q 2353 2234 1838 2234 
L 1294 2234 
L 1294 2753 
L 1863 2753 
Q 2328 2753 2575 2939 
Q 2822 3125 2822 3475 
Q 2822 3834 2567 4026 
Q 2313 4219 1838 4219 
Q 1578 4219 1281 4162 
Q 984 4106 628 3988 
L 628 4550 
Q 988 4650 1302 4700 
Q 1616 4750 1894 4750 
Q 2613 4750 3031 4423 
Q 3450 4097 3450 3541 
Q 3450 3153 3228 2886 
Q 3006 2619 2597 2516 
z
" transform="scale(0.015625)"/>
       </defs>
       <use xlink:href="#DejaVuSans-2212"/>
       <use xlink:href="#DejaVuSans-33" x="83.789062"/>
      </g>
     </g>
    </g>
    <g id="ytick_7">
     <g id="line2d_27">
      <path d="M 71.576563 146.377708 
L 704.88 146.377708 
" clip-path="url(#p0550759ed6)" style="fill: none; stroke: #b0b0b0; stroke-opacity: 0.3; stroke-width: 0.5; stroke-linecap: square"/>
     </g>
     <g id="line2d_28">
      <g>
       <use xlink:href="#m234bfe0021" x="71.576563" y="146.377708" style="stroke: #000000; stroke-width: 1.5"/>
      </g>
     </g>
     <g id="text_15">
      <!-- −2 -->
      <g transform="translate(36.540625 153.216302) scale(0.18 -0.18)">
       <use xlink:href="#DejaVuSans-2212"/>
       <use xlink:href="#DejaVuSans-32" x="83.789062"/>
      </g>
     </g>
    </g>
    <g id="ytick_8">
     <g id="line2d_29">
      <path d="M 71.576563 109.184201 
L 704.88 109.184201 
" clip-path="url(#p0550759ed6)" style="fill: none; stroke: #b0b0b0; stroke-opacity: 0.3; stroke-width: 0.5; stroke-linecap: square"/>
     </g>
     <g id="line2d_30">
      <g>
       <use xlink:href="#m234bfe0021" x="71.576563" y="109.184201" style="stroke: #000000; stroke-width: 1.5"/>
      </g>
     </g>
     <g id="text_16">
      <!-- −1 -->
      <g transform="translate(36.540625 116.022795) scale(0.18 -0.18)">
       <defs>
        <path id="DejaVuSans-31" d="M 794 531 
L 1825 531 
L 1825 4091 
L 703 3866 
L 703 4441 
L 1819 4666 
L 2450 4666 
L 2450 531 
L 3481 531 
L 3481 0 
L 794 0 
L 794 531 
z
" transform="scale(0.015625)"/>
       </defs>
       <use xlink:href="#DejaVuSans-2212"/>
       <use xlink:href="#DejaVuSans-31" x="83.789062"/>
      </g>
     </g>
    </g>
    <g id="ytick_9">
     <g id="line2d_31">
      <path d="M 71.576563 71.990694 
L 704.88 71.990694 
" clip-path="url(#p0550759ed6)" style="fill: none; stroke: #b0b0b0; stroke-opacity: 0.3; stroke-width: 0.5; stroke-linecap: square"/>
     </g>
     <g id="line2d_32">
      <g>
       <use xlink:href="#m234bfe0021" x="71.576563" y="71.990694" style="stroke: #000000; stroke-width: 1.5"/>
      </g>
     </g>
     <g id="text_17">
      <!-- 0 -->
      <g transform="translate(51.624063 78.829288) scale(0.18 -0.18)">
       <use xlink:href="#DejaVuSans-30"/>
      </g>
     </g>
    </g>
    <g id="ytick_10">
     <g id="line2d_33">
      <path d="M 71.576563 34.797187 
L 704.88 34.797187 
" clip-path="url(#p0550759ed6)" style="fill: none; stroke: #b0b0b0; stroke-opacity: 0.3; stroke-width: 0.5; stroke-linecap: square"/>
     </g>
     <g id="line2d_34">
      <g>
       <use xlink:href="#m234bfe0021" x="71.576563" y="34.797187" style="stroke: #000000; stroke-width: 1.5"/>
      </g>
     </g>
     <g id="text_18">
      <!-- 1 -->
      <g transform="translate(51.624063 41.635781) scale(0.18 -0.18)">
       <use xlink:href="#DejaVuSans-31"/>
      </g>
     </g>
    </g>
    <g id="text_19">
     <!-- $\Delta$ Accuracy -->
     <g transform="translate(28.760625 252.477969) rotate(-90) scale(0.18 -0.18)">
      <defs>
       <path id="DejaVuSans-394" d="M 2188 4044 
L 906 525 
L 3472 525 
L 2188 4044 
z
M 50 0 
L 1831 4666 
L 2547 4666 
L 4325 0 
L 50 0 
z
" transform="scale(0.015625)"/>
       <path id="DejaVuSans-41" d="M 2188 4044 
L 1331 1722 
L 3047 1722 
L 2188 4044 
z
M 1831 4666 
L 2547 4666 
L 4325 0 
L 3669 0 
L 3244 1197 
L 1141 1197 
L 716 0 
L 50 0 
L 1831 4666 
z
" transform="scale(0.015625)"/>
       <path id="DejaVuSans-63" d="M 3122 3366 
L 3122 2828 
Q 2878 2963 2633 3030 
Q 2388 3097 2138 3097 
Q 1578 3097 1268 2742 
Q 959 2388 959 1747 
Q 959 1106 1268 751 
Q 1578 397 2138 397 
Q 2388 397 2633 464 
Q 2878 531 3122 666 
L 3122 134 
Q 2881 22 2623 -34 
Q 2366 -91 2075 -91 
Q 1284 -91 818 406 
Q 353 903 353 1747 
Q 353 2603 823 3093 
Q 1294 3584 2113 3584 
Q 2378 3584 2631 3529 
Q 2884 3475 3122 3366 
z
" transform="scale(0.015625)"/>
       <path id="DejaVuSans-75" d="M 544 1381 
L 544 3500 
L 1119 3500 
L 1119 1403 
Q 1119 906 1312 657 
Q 1506 409 1894 409 
Q 2359 409 2629 706 
Q 2900 1003 2900 1516 
L 2900 3500 
L 3475 3500 
L 3475 0 
L 2900 0 
L 2900 538 
Q 2691 219 2414 64 
Q 2138 -91 1772 -91 
Q 1169 -91 856 284 
Q 544 659 544 1381 
z
M 1991 3584 
L 1991 3584 
z
" transform="scale(0.015625)"/>
       <path id="DejaVuSans-79" d="M 2059 -325 
Q 1816 -950 1584 -1140 
Q 1353 -1331 966 -1331 
L 506 -1331 
L 506 -850 
L 844 -850 
Q 1081 -850 1212 -737 
Q 1344 -625 1503 -206 
L 1606 56 
L 191 3500 
L 800 3500 
L 1894 763 
L 2988 3500 
L 3597 3500 
L 2059 -325 
z
" transform="scale(0.015625)"/>
      </defs>
      <use xlink:href="#DejaVuSans-394" transform="translate(0 0.09375)"/>
      <use xlink:href="#DejaVuSans-20" transform="translate(68.408203 0.09375)"/>
      <use xlink:href="#DejaVuSans-41" transform="translate(100.195312 0.09375)"/>
      <use xlink:href="#DejaVuSans-63" transform="translate(168.603516 0.09375)"/>
      <use xlink:href="#DejaVuSans-63" transform="translate(223.583984 0.09375)"/>
      <use xlink:href="#DejaVuSans-75" transform="translate(278.564453 0.09375)"/>
      <use xlink:href="#DejaVuSans-72" transform="translate(341.943359 0.09375)"/>
      <use xlink:href="#DejaVuSans-61" transform="translate(383.056641 0.09375)"/>
      <use xlink:href="#DejaVuSans-63" transform="translate(444.335938 0.09375)"/>
      <use xlink:href="#DejaVuSans-79" transform="translate(499.316406 0.09375)"/>
     </g>
    </g>
   </g>
   <g id="line2d_35">
    <path d="M 388.228281 71.990694 
L 347.104681 120.342253 
L 305.981082 153.81641 
L 264.857482 176.132514 
L 223.733882 172.413163 
L 182.610282 187.290566 
L 141.486682 194.729267 
L 100.363082 191.009917 
" clip-path="url(#p0550759ed6)" style="fill: none; stroke: #0d0887; stroke-width: 2; stroke-linecap: square"/>
    <defs>
     <path id="m9200ff1ed1" d="M 0 4 
C 1.060812 4 2.078319 3.578535 2.828427 2.828427 
C 3.578535 2.078319 4 1.060812 4 0 
C 4 -1.060812 3.578535 -2.078319 2.828427 -2.828427 
C 2.078319 -3.578535 1.060812 -4 0 -4 
C -1.060812 -4 -2.078319 -3.578535 -2.828427 -2.828427 
C -3.578535 -2.078319 -4 -1.060812 -4 0 
C -4 1.060812 -3.578535 2.078319 -2.828427 2.828427 
C -2.078319 3.578535 -1.060812 4 0 4 
z
" style="stroke: #0d0887"/>
    </defs>
    <g clip-path="url(#p0550759ed6)">
     <use xlink:href="#m9200ff1ed1" x="388.228281" y="71.990694" style="fill: #0d0887; stroke: #0d0887"/>
     <use xlink:href="#m9200ff1ed1" x="347.104681" y="120.342253" style="fill: #0d0887; stroke: #0d0887"/>
     <use xlink:href="#m9200ff1ed1" x="305.981082" y="153.81641" style="fill: #0d0887; stroke: #0d0887"/>
     <use xlink:href="#m9200ff1ed1" x="264.857482" y="176.132514" style="fill: #0d0887; stroke: #0d0887"/>
     <use xlink:href="#m9200ff1ed1" x="223.733882" y="172.413163" style="fill: #0d0887; stroke: #0d0887"/>
     <use xlink:href="#m9200ff1ed1" x="182.610282" y="187.290566" style="fill: #0d0887; stroke: #0d0887"/>
     <use xlink:href="#m9200ff1ed1" x="141.486682" y="194.729267" style="fill: #0d0887; stroke: #0d0887"/>
     <use xlink:href="#m9200ff1ed1" x="100.363082" y="191.009917" style="fill: #0d0887; stroke: #0d0887"/>
    </g>
   </g>
   <g id="line2d_36">
    <path d="M 429.351881 116.622903 
L 388.228281 71.990694 
L 347.104681 79.429396 
L 305.981082 75.710045 
L 264.857482 71.990694 
L 223.733882 83.148747 
L 182.610282 83.148747 
L 141.486682 86.868097 
" clip-path="url(#p0550759ed6)" style="fill: none; stroke: #5302a3; stroke-width: 2; stroke-linecap: square"/>
    <defs>
     <path id="mb0a41c4994" d="M 0 4 
C 1.060812 4 2.078319 3.578535 2.828427 2.828427 
C 3.578535 2.078319 4 1.060812 4 0 
C 4 -1.060812 3.578535 -2.078319 2.828427 -2.828427 
C 2.078319 -3.578535 1.060812 -4 0 -4 
C -1.060812 -4 -2.078319 -3.578535 -2.828427 -2.828427 
C -3.578535 -2.078319 -4 -1.060812 -4 0 
C -4 1.060812 -3.578535 2.078319 -2.828427 2.828427 
C -2.078319 3.578535 -1.060812 4 0 4 
z
" style="stroke: #5302a3"/>
    </defs>
    <g clip-path="url(#p0550759ed6)">
     <use xlink:href="#mb0a41c4994" x="429.351881" y="116.622903" style="fill: #5302a3; stroke: #5302a3"/>
     <use xlink:href="#mb0a41c4994" x="388.228281" y="71.990694" style="fill: #5302a3; stroke: #5302a3"/>
     <use xlink:href="#mb0a41c4994" x="347.104681" y="79.429396" style="fill: #5302a3; stroke: #5302a3"/>
     <use xlink:href="#mb0a41c4994" x="305.981082" y="75.710045" style="fill: #5302a3; stroke: #5302a3"/>
     <use xlink:href="#mb0a41c4994" x="264.857482" y="71.990694" style="fill: #5302a3; stroke: #5302a3"/>
     <use xlink:href="#mb0a41c4994" x="223.733882" y="83.148747" style="fill: #5302a3; stroke: #5302a3"/>
     <use xlink:href="#mb0a41c4994" x="182.610282" y="83.148747" style="fill: #5302a3; stroke: #5302a3"/>
     <use xlink:href="#mb0a41c4994" x="141.486682" y="86.868097" style="fill: #5302a3; stroke: #5302a3"/>
    </g>
   </g>
   <g id="line2d_37">
    <path d="M 470.475481 157.53576 
L 429.351881 75.710045 
L 388.228281 71.990694 
L 347.104681 71.990694 
L 305.981082 79.429396 
L 264.857482 79.429396 
L 223.733882 75.710045 
L 182.610282 86.868097 
" clip-path="url(#p0550759ed6)" style="fill: none; stroke: #8b0aa5; stroke-width: 2; stroke-linecap: square"/>
    <defs>
     <path id="mb1317fae96" d="M 0 4 
C 1.060812 4 2.078319 3.578535 2.828427 2.828427 
C 3.578535 2.078319 4 1.060812 4 0 
C 4 -1.060812 3.578535 -2.078319 2.828427 -2.828427 
C 2.078319 -3.578535 1.060812 -4 0 -4 
C -1.060812 -4 -2.078319 -3.578535 -2.828427 -2.828427 
C -3.578535 -2.078319 -4 -1.060812 -4 0 
C -4 1.060812 -3.578535 2.078319 -2.828427 2.828427 
C -2.078319 3.578535 -1.060812 4 0 4 
z
" style="stroke: #8b0aa5"/>
    </defs>
    <g clip-path="url(#p0550759ed6)">
     <use xlink:href="#mb1317fae96" x="470.475481" y="157.53576" style="fill: #8b0aa5; stroke: #8b0aa5"/>
     <use xlink:href="#mb1317fae96" x="429.351881" y="75.710045" style="fill: #8b0aa5; stroke: #8b0aa5"/>
     <use xlink:href="#mb1317fae96" x="388.228281" y="71.990694" style="fill: #8b0aa5; stroke: #8b0aa5"/>
     <use xlink:href="#mb1317fae96" x="347.104681" y="71.990694" style="fill: #8b0aa5; stroke: #8b0aa5"/>
     <use xlink:href="#mb1317fae96" x="305.981082" y="79.429396" style="fill: #8b0aa5; stroke: #8b0aa5"/>
     <use xlink:href="#mb1317fae96" x="264.857482" y="79.429396" style="fill: #8b0aa5; stroke: #8b0aa5"/>
     <use xlink:href="#mb1317fae96" x="223.733882" y="75.710045" style="fill: #8b0aa5; stroke: #8b0aa5"/>
     <use xlink:href="#mb1317fae96" x="182.610282" y="86.868097" style="fill: #8b0aa5; stroke: #8b0aa5"/>
    </g>
   </g>
   <g id="line2d_38">
    <path d="M 511.599081 172.413163 
L 470.475481 75.710045 
L 429.351881 75.710045 
L 388.228281 71.990694 
L 347.104681 71.990694 
L 305.981082 71.990694 
L 264.857482 75.710045 
L 223.733882 71.990694 
" clip-path="url(#p0550759ed6)" style="fill: none; stroke: #b83289; stroke-width: 2; stroke-linecap: square"/>
    <defs>
     <path id="m873e3bd820" d="M 0 4 
C 1.060812 4 2.078319 3.578535 2.828427 2.828427 
C 3.578535 2.078319 4 1.060812 4 0 
C 4 -1.060812 3.578535 -2.078319 2.828427 -2.828427 
C 2.078319 -3.578535 1.060812 -4 0 -4 
C -1.060812 -4 -2.078319 -3.578535 -2.828427 -2.828427 
C -3.578535 -2.078319 -4 -1.060812 -4 0 
C -4 1.060812 -3.578535 2.078319 -2.828427 2.828427 
C -2.078319 3.578535 -1.060812 4 0 4 
z
" style="stroke: #b83289"/>
    </defs>
    <g clip-path="url(#p0550759ed6)">
     <use xlink:href="#m873e3bd820" x="511.599081" y="172.413163" style="fill: #b83289; stroke: #b83289"/>
     <use xlink:href="#m873e3bd820" x="470.475481" y="75.710045" style="fill: #b83289; stroke: #b83289"/>
     <use xlink:href="#m873e3bd820" x="429.351881" y="75.710045" style="fill: #b83289; stroke: #b83289"/>
     <use xlink:href="#m873e3bd820" x="388.228281" y="71.990694" style="fill: #b83289; stroke: #b83289"/>
     <use xlink:href="#m873e3bd820" x="347.104681" y="71.990694" style="fill: #b83289; stroke: #b83289"/>
     <use xlink:href="#m873e3bd820" x="305.981082" y="71.990694" style="fill: #b83289; stroke: #b83289"/>
     <use xlink:href="#m873e3bd820" x="264.857482" y="75.710045" style="fill: #b83289; stroke: #b83289"/>
     <use xlink:href="#m873e3bd820" x="223.733882" y="71.990694" style="fill: #b83289; stroke: #b83289"/>
    </g>
   </g>
   <g id="line2d_39">
    <path d="M 552.722681 198.448618 
L 511.599081 75.710045 
L 470.475481 75.710045 
L 429.351881 75.710045 
L 388.228281 75.710045 
L 347.104681 83.148747 
L 305.981082 79.429396 
L 264.857482 71.990694 
" clip-path="url(#p0550759ed6)" style="fill: none; stroke: #db5c68; stroke-width: 2; stroke-linecap: square"/>
    <defs>
     <path id="mba32635bdf" d="M 0 4 
C 1.060812 4 2.078319 3.578535 2.828427 2.828427 
C 3.578535 2.078319 4 1.060812 4 0 
C 4 -1.060812 3.578535 -2.078319 2.828427 -2.828427 
C 2.078319 -3.578535 1.060812 -4 0 -4 
C -1.060812 -4 -2.078319 -3.578535 -2.828427 -2.828427 
C -3.578535 -2.078319 -4 -1.060812 -4 0 
C -4 1.060812 -3.578535 2.078319 -2.828427 2.828427 
C -2.078319 3.578535 -1.060812 4 0 4 
z
" style="stroke: #db5c68"/>
    </defs>
    <g clip-path="url(#p0550759ed6)">
     <use xlink:href="#mba32635bdf" x="552.722681" y="198.448618" style="fill: #db5c68; stroke: #db5c68"/>
     <use xlink:href="#mba32635bdf" x="511.599081" y="75.710045" style="fill: #db5c68; stroke: #db5c68"/>
     <use xlink:href="#mba32635bdf" x="470.475481" y="75.710045" style="fill: #db5c68; stroke: #db5c68"/>
     <use xlink:href="#mba32635bdf" x="429.351881" y="75.710045" style="fill: #db5c68; stroke: #db5c68"/>
     <use xlink:href="#mba32635bdf" x="388.228281" y="75.710045" style="fill: #db5c68; stroke: #db5c68"/>
     <use xlink:href="#mba32635bdf" x="347.104681" y="83.148747" style="fill: #db5c68; stroke: #db5c68"/>
     <use xlink:href="#mba32635bdf" x="305.981082" y="79.429396" style="fill: #db5c68; stroke: #db5c68"/>
     <use xlink:href="#mba32635bdf" x="264.857482" y="71.990694" style="fill: #db5c68; stroke: #db5c68"/>
    </g>
   </g>
   <g id="line2d_40">
    <path d="M 593.84628 194.729267 
L 552.722681 90.587448 
L 511.599081 79.429396 
L 470.475481 75.710045 
L 429.351881 71.990694 
L 388.228281 75.710045 
L 347.104681 75.710045 
L 305.981082 75.710045 
" clip-path="url(#p0550759ed6)" style="fill: none; stroke: #f48849; stroke-width: 2; stroke-linecap: square"/>
    <defs>
     <path id="mcd41c92037" d="M 0 4 
C 1.060812 4 2.078319 3.578535 2.828427 2.828427 
C 3.578535 2.078319 4 1.060812 4 0 
C 4 -1.060812 3.578535 -2.078319 2.828427 -2.828427 
C 2.078319 -3.578535 1.060812 -4 0 -4 
C -1.060812 -4 -2.078319 -3.578535 -2.828427 -2.828427 
C -3.578535 -2.078319 -4 -1.060812 -4 0 
C -4 1.060812 -3.578535 2.078319 -2.828427 2.828427 
C -2.078319 3.578535 -1.060812 4 0 4 
z
" style="stroke: #f48849"/>
    </defs>
    <g clip-path="url(#p0550759ed6)">
     <use xlink:href="#mcd41c92037" x="593.84628" y="194.729267" style="fill: #f48849; stroke: #f48849"/>
     <use xlink:href="#mcd41c92037" x="552.722681" y="90.587448" style="fill: #f48849; stroke: #f48849"/>
     <use xlink:href="#mcd41c92037" x="511.599081" y="79.429396" style="fill: #f48849; stroke: #f48849"/>
     <use xlink:href="#mcd41c92037" x="470.475481" y="75.710045" style="fill: #f48849; stroke: #f48849"/>
     <use xlink:href="#mcd41c92037" x="429.351881" y="71.990694" style="fill: #f48849; stroke: #f48849"/>
     <use xlink:href="#mcd41c92037" x="388.228281" y="75.710045" style="fill: #f48849; stroke: #f48849"/>
     <use xlink:href="#mcd41c92037" x="347.104681" y="75.710045" style="fill: #f48849; stroke: #f48849"/>
     <use xlink:href="#mcd41c92037" x="305.981082" y="75.710045" style="fill: #f48849; stroke: #f48849"/>
    </g>
   </g>
   <g id="line2d_41">
    <path d="M 634.96988 209.60667 
L 593.84628 86.868097 
L 552.722681 71.990694 
L 511.599081 75.710045 
L 470.475481 71.990694 
L 429.351881 71.990694 
L 388.228281 71.990694 
L 347.104681 71.990694 
" clip-path="url(#p0550759ed6)" style="fill: none; stroke: #febd2a; stroke-width: 2; stroke-linecap: square"/>
    <defs>
     <path id="m96aad37790" d="M 0 4 
C 1.060812 4 2.078319 3.578535 2.828427 2.828427 
C 3.578535 2.078319 4 1.060812 4 0 
C 4 -1.060812 3.578535 -2.078319 2.828427 -2.828427 
C 2.078319 -3.578535 1.060812 -4 0 -4 
C -1.060812 -4 -2.078319 -3.578535 -2.828427 -2.828427 
C -3.578535 -2.078319 -4 -1.060812 -4 0 
C -4 1.060812 -3.578535 2.078319 -2.828427 2.828427 
C -2.078319 3.578535 -1.060812 4 0 4 
z
" style="stroke: #febd2a"/>
    </defs>
    <g clip-path="url(#p0550759ed6)">
     <use xlink:href="#m96aad37790" x="634.96988" y="209.60667" style="fill: #febd2a; stroke: #febd2a"/>
     <use xlink:href="#m96aad37790" x="593.84628" y="86.868097" style="fill: #febd2a; stroke: #febd2a"/>
     <use xlink:href="#m96aad37790" x="552.722681" y="71.990694" style="fill: #febd2a; stroke: #febd2a"/>
     <use xlink:href="#m96aad37790" x="511.599081" y="75.710045" style="fill: #febd2a; stroke: #febd2a"/>
     <use xlink:href="#m96aad37790" x="470.475481" y="71.990694" style="fill: #febd2a; stroke: #febd2a"/>
     <use xlink:href="#m96aad37790" x="429.351881" y="71.990694" style="fill: #febd2a; stroke: #febd2a"/>
     <use xlink:href="#m96aad37790" x="388.228281" y="71.990694" style="fill: #febd2a; stroke: #febd2a"/>
     <use xlink:href="#m96aad37790" x="347.104681" y="71.990694" style="fill: #febd2a; stroke: #febd2a"/>
    </g>
   </g>
   <g id="line2d_42">
    <path d="M 676.09348 213.326021 
L 634.96988 83.148747 
L 593.84628 79.429396 
L 552.722681 83.148747 
L 511.599081 71.990694 
L 470.475481 79.429396 
L 429.351881 71.990694 
L 388.228281 79.429396 
" clip-path="url(#p0550759ed6)" style="fill: none; stroke: #f0f921; stroke-width: 2; stroke-linecap: square"/>
    <defs>
     <path id="m8b82e16d34" d="M 0 4 
C 1.060812 4 2.078319 3.578535 2.828427 2.828427 
C 3.578535 2.078319 4 1.060812 4 0 
C 4 -1.060812 3.578535 -2.078319 2.828427 -2.828427 
C 2.078319 -3.578535 1.060812 -4 0 -4 
C -1.060812 -4 -2.078319 -3.578535 -2.828427 -2.828427 
C -3.578535 -2.078319 -4 -1.060812 -4 0 
C -4 1.060812 -3.578535 2.078319 -2.828427 2.828427 
C -2.078319 3.578535 -1.060812 4 0 4 
z
" style="stroke: #f0f921"/>
    </defs>
    <g clip-path="url(#p0550759ed6)">
     <use xlink:href="#m8b82e16d34" x="676.09348" y="213.326021" style="fill: #f0f921; stroke: #f0f921"/>
     <use xlink:href="#m8b82e16d34" x="634.96988" y="83.148747" style="fill: #f0f921; stroke: #f0f921"/>
     <use xlink:href="#m8b82e16d34" x="593.84628" y="79.429396" style="fill: #f0f921; stroke: #f0f921"/>
     <use xlink:href="#m8b82e16d34" x="552.722681" y="83.148747" style="fill: #f0f921; stroke: #f0f921"/>
     <use xlink:href="#m8b82e16d34" x="511.599081" y="71.990694" style="fill: #f0f921; stroke: #f0f921"/>
     <use xlink:href="#m8b82e16d34" x="470.475481" y="79.429396" style="fill: #f0f921; stroke: #f0f921"/>
     <use xlink:href="#m8b82e16d34" x="429.351881" y="71.990694" style="fill: #f0f921; stroke: #f0f921"/>
     <use xlink:href="#m8b82e16d34" x="388.228281" y="79.429396" style="fill: #f0f921; stroke: #f0f921"/>
    </g>
   </g>
   <g id="LineCollection_1">
    <path d="M 388.228281 369.53875 
L 388.228281 34.797187 
" clip-path="url(#p0550759ed6)" style="fill: none; stroke-dasharray: 11.1,4.8; stroke-dashoffset: 0; stroke: #808080; stroke-width: 3"/>
   </g>
   <g id="patch_3">
    <path d="M 71.576563 369.53875 
L 71.576563 34.797187 
" style="fill: none; stroke: #000000; stroke-width: 1.5; stroke-linejoin: miter; stroke-linecap: square"/>
   </g>
   <g id="patch_4">
    <path d="M 71.576562 369.53875 
L 704.88 369.53875 
" style="fill: none; stroke: #000000; stroke-width: 1.5; stroke-linejoin: miter; stroke-linecap: square"/>
   </g>
   <g id="text_20">
    <!-- $NLF_2$ -->
    <g transform="translate(366.988281 28.797188) scale(0.18 -0.18)">
     <defs>
      <path id="DejaVuSans-Oblique-4e" d="M 1081 4666 
L 1931 4666 
L 3219 666 
L 4000 4666 
L 4616 4666 
L 3706 0 
L 2853 0 
L 1569 4025 
L 788 0 
L 172 0 
L 1081 4666 
z
" transform="scale(0.015625)"/>
      <path id="DejaVuSans-Oblique-4c" d="M 1075 4666 
L 1709 4666 
L 909 525 
L 3181 525 
L 3078 0 
L 172 0 
L 1075 4666 
z
" transform="scale(0.015625)"/>
      <path id="DejaVuSans-Oblique-46" d="M 1081 4666 
L 3756 4666 
L 3653 4134 
L 1606 4134 
L 1338 2759 
L 3188 2759 
L 3084 2228 
L 1234 2228 
L 800 0 
L 172 0 
L 1081 4666 
z
" transform="scale(0.015625)"/>
     </defs>
     <use xlink:href="#DejaVuSans-Oblique-4e" transform="translate(0 0.09375)"/>
     <use xlink:href="#DejaVuSans-Oblique-4c" transform="translate(74.804688 0.09375)"/>
     <use xlink:href="#DejaVuSans-Oblique-46" transform="translate(130.517578 0.09375)"/>
     <use xlink:href="#DejaVuSans-32" transform="translate(188.037109 -16.3125) scale(0.7)"/>
    </g>
   </g>
   <g id="legend_1">
    <g id="text_21">
     <!-- Train -->
     <g transform="translate(150.837812 244.744687) scale(0.14 -0.14)">
      <use xlink:href="#DejaVuSans-54"/>
      <use xlink:href="#DejaVuSans-72" x="46.333984"/>
      <use xlink:href="#DejaVuSans-61" x="87.447266"/>
      <use xlink:href="#DejaVuSans-69" x="148.726562"/>
      <use xlink:href="#DejaVuSans-6e" x="176.509766"/>
     </g>
    </g>
    <g id="line2d_43">
     <path d="M 87.776563 264.033437 
L 105.776563 264.033437 
L 123.776563 264.033437 
" style="fill: none; stroke: #0d0887; stroke-width: 2; stroke-linecap: square"/>
     <g>
      <use xlink:href="#m9200ff1ed1" x="105.776563" y="264.033437" style="fill: #0d0887; stroke: #0d0887"/>
     </g>
    </g>
    <g id="text_22">
     <!-- 1 -->
     <g transform="translate(138.176563 270.333438) scale(0.18 -0.18)">
      <use xlink:href="#DejaVuSans-31"/>
     </g>
    </g>
    <g id="line2d_44">
     <path d="M 87.776563 290.454063 
L 105.776563 290.454063 
L 123.776563 290.454063 
" style="fill: none; stroke: #5302a3; stroke-width: 2; stroke-linecap: square"/>
     <g>
      <use xlink:href="#mb0a41c4994" x="105.776563" y="290.454063" style="fill: #5302a3; stroke: #5302a3"/>
     </g>
    </g>
    <g id="text_23">
     <!-- 2 -->
     <g transform="translate(138.176563 296.754063) scale(0.18 -0.18)">
      <use xlink:href="#DejaVuSans-32"/>
     </g>
    </g>
    <g id="line2d_45">
     <path d="M 87.776563 316.874687 
L 105.776563 316.874687 
L 123.776563 316.874687 
" style="fill: none; stroke: #8b0aa5; stroke-width: 2; stroke-linecap: square"/>
     <g>
      <use xlink:href="#mb1317fae96" x="105.776563" y="316.874687" style="fill: #8b0aa5; stroke: #8b0aa5"/>
     </g>
    </g>
    <g id="text_24">
     <!-- 3 -->
     <g transform="translate(138.176563 323.174688) scale(0.18 -0.18)">
      <use xlink:href="#DejaVuSans-33"/>
     </g>
    </g>
    <g id="line2d_46">
     <path d="M 87.776563 343.295312 
L 105.776563 343.295312 
L 123.776563 343.295312 
" style="fill: none; stroke: #b83289; stroke-width: 2; stroke-linecap: square"/>
     <g>
      <use xlink:href="#m873e3bd820" x="105.776563" y="343.295312" style="fill: #b83289; stroke: #b83289"/>
     </g>
    </g>
    <g id="text_25">
     <!-- 4 -->
     <g transform="translate(138.176563 349.595312) scale(0.18 -0.18)">
      <use xlink:href="#DejaVuSans-34"/>
     </g>
    </g>
    <g id="line2d_47">
     <path d="M 185.629063 264.033437 
L 203.629063 264.033437 
L 221.629063 264.033437 
" style="fill: none; stroke: #db5c68; stroke-width: 2; stroke-linecap: square"/>
     <g>
      <use xlink:href="#mba32635bdf" x="203.629063" y="264.033437" style="fill: #db5c68; stroke: #db5c68"/>
     </g>
    </g>
    <g id="text_26">
     <!-- 5 -->
     <g transform="translate(236.029063 270.333438) scale(0.18 -0.18)">
      <use xlink:href="#DejaVuSans-35"/>
     </g>
    </g>
    <g id="line2d_48">
     <path d="M 185.629063 290.454063 
L 203.629063 290.454063 
L 221.629063 290.454063 
" style="fill: none; stroke: #f48849; stroke-width: 2; stroke-linecap: square"/>
     <g>
      <use xlink:href="#mcd41c92037" x="203.629063" y="290.454063" style="fill: #f48849; stroke: #f48849"/>
     </g>
    </g>
    <g id="text_27">
     <!-- 6 -->
     <g transform="translate(236.029063 296.754063) scale(0.18 -0.18)">
      <use xlink:href="#DejaVuSans-36"/>
     </g>
    </g>
    <g id="line2d_49">
     <path d="M 185.629063 316.874687 
L 203.629063 316.874687 
L 221.629063 316.874687 
" style="fill: none; stroke: #febd2a; stroke-width: 2; stroke-linecap: square"/>
     <g>
      <use xlink:href="#m96aad37790" x="203.629063" y="316.874687" style="fill: #febd2a; stroke: #febd2a"/>
     </g>
    </g>
    <g id="text_28">
     <!-- 7 -->
     <g transform="translate(236.029063 323.174688) scale(0.18 -0.18)">
      <use xlink:href="#DejaVuSans-37"/>
     </g>
    </g>
    <g id="line2d_50">
     <path d="M 185.629063 343.295312 
L 203.629063 343.295312 
L 221.629063 343.295312 
" style="fill: none; stroke: #f0f921; stroke-width: 2; stroke-linecap: square"/>
     <g>
      <use xlink:href="#m8b82e16d34" x="203.629063" y="343.295312" style="fill: #f0f921; stroke: #f0f921"/>
     </g>
    </g>
    <g id="text_29">
     <!-- 8 -->
     <g transform="translate(236.029063 349.595312) scale(0.18 -0.18)">
      <use xlink:href="#DejaVuSans-38"/>
     </g>
    </g>
   </g>
  </g>
 </g>
 <defs>
  <clipPath id="p0550759ed6">
   <rect x="71.576563" y="34.797188" width="633.303437" height="334.741562"/>
  </clipPath>
 </defs>
</svg>
